<?xml version="1.0" encoding="UTF-8"?>
<svg xmlns="http://www.w3.org/2000/svg" xmlns:xlink="http://www.w3.org/1999/xlink" viewBox="0 0 111.13 111.13">
  <defs>
    <style>
      .cls-1 {
        fill: #3a3687;
      }

      .cls-2 {
        fill: #c5c3e6;
        mix-blend-mode: multiply;
      }

      .cls-3 {
        fill: #474ca8;
      }

      .cls-4 {
        fill: #235ecc;
      }

      .cls-4, .cls-5 {
        mix-blend-mode: screen;
      }

      .cls-5 {
        fill: #272da1;
      }

      .cls-6 {
        fill: #42f9ff;
      }

      .cls-7 {
        isolation: isolate;
      }

      .cls-8 {
        fill: #e4edff;
      }

      .cls-9 {
        fill: #70a2ff;
      }

      .cls-10 {
        opacity: .37;
      }

      .cls-11 {
        clip-path: url(#clippath);
      }
    </style>
    <clipPath id="clippath">
      <circle class="cls-8" cx="55.56" cy="55.56" r="55.56"/>
    </clipPath>
  </defs>
  <g class="cls-7">
    <g id="Layer_2" data-name="Layer 2">
      <g id="_ò__1" data-name="ò‡_1">
        <g>
          <circle class="cls-8" cx="55.56" cy="55.56" r="55.56"/>
          <g class="cls-11">
            <g class="cls-10">
              <rect class="cls-3" x="47.13" y="38.41" width="17" height="5.41"/>
              <rect class="cls-3" x="25.13" y="53.37" width="17" height="5.41"/>
              <rect class="cls-3" x="69.13" y="53.37" width="17" height="5.41"/>
              <rect class="cls-3" x="25.13" y="45.86" width="17" height="5.41"/>
              <rect class="cls-3" x="69.13" y="45.86" width="17" height="5.41"/>
              <rect class="cls-3" x="91.13" y="38.69" width="17" height="5.41"/>
              <rect class="cls-3" x="69.13" y="24.43" width="17" height="5.41"/>
              <rect class="cls-3" x="25.13" y="38.36" width="17" height="5.41"/>
              <rect class="cls-3" x="25.13" y="75.88" width="17" height="5.41"/>
              <rect class="cls-3" x="25.13" y="68.37" width="17" height="5.41"/>
              <rect class="cls-3" x="25.13" y="60.87" width="17" height="5.41"/>
              <rect class="cls-3" x="3.13" y="75.88" width="17" height="5.41"/>
              <rect class="cls-3" x="3.13" y="68.37" width="17" height="5.41"/>
              <rect class="cls-3" x="3.13" y="60.87" width="17" height="5.41"/>
              <rect class="cls-3" x="47.13" y="75.88" width="17" height="5.41"/>
              <rect class="cls-3" x="47.13" y="68.37" width="17" height="5.41"/>
              <rect class="cls-3" x="47.13" y="60.87" width="17" height="5.41"/>
              <rect class="cls-3" x="69.13" y="75.88" width="17" height="5.41"/>
              <rect class="cls-3" x="69.13" y="68.37" width="17" height="5.41"/>
              <rect class="cls-3" x="69.13" y="60.87" width="17" height="5.41"/>
              <rect class="cls-3" x="91.13" y="75.88" width="17" height="5.41"/>
              <rect class="cls-3" x="91.13" y="68.37" width="17" height="5.41"/>
              <rect class="cls-3" x="25.13" y="90.88" width="17" height="5.41"/>
              <rect class="cls-3" x="25.13" y="83.38" width="17" height="5.41"/>
              <rect class="cls-3" x="3.13" y="90.88" width="17" height="5.41"/>
              <rect class="cls-3" x="3.13" y="83.38" width="17" height="5.41"/>
              <rect class="cls-3" x="47.13" y="90.88" width="17" height="5.41"/>
              <rect class="cls-3" x="47.13" y="83.38" width="17" height="5.41"/>
              <rect class="cls-3" x="69.13" y="90.88" width="17" height="5.41"/>
              <rect class="cls-3" x="69.13" y="83.38" width="17" height="5.41"/>
              <rect class="cls-3" x="91.13" y="90.88" width="17" height="5.41"/>
              <rect class="cls-3" x="91.13" y="83.38" width="17" height="5.41"/>
              <rect class="cls-3" x="25.13" y="13.99" width="17" height="5.41"/>
              <rect class="cls-3" x="91.13" y="60.87" width="17" height="5.41"/>
              <rect class="cls-3" x="3.13" y="53.37" width="17" height="5.41"/>
              <rect class="cls-3" x="3.13" y="31.51" width="17" height="5.41"/>
            </g>
            <g>
              <path class="cls-9" d="M55.53,94.98c15.55,0,28.27,12.72,28.27,28.27v34.41c0,10.81-8.84,19.65-19.65,19.65h-17.25c-10.81,0-19.65-8.84-19.65-19.65v-34.41c0-15.55,12.72-28.27,28.27-28.27Z"/>
              <path class="cls-3" d="M55.53,91.5c18.17,0,33.04,14.87,33.04,33.04v26.33c0,12.63-10.33,22.96-22.96,22.96h-20.16c-12.63,0-22.96-10.33-22.96-22.96v-26.33c0-18.17,14.87-33.04,33.04-33.04Z"/>
              <path class="cls-9" d="M55.53,166.6c7.54,0,13.7-6.17,13.7-13.7v-58.38c-4.18-1.93-8.82-3.03-13.7-3.03s-9.52,1.1-13.7,3.03v58.38c0,7.54,6.17,13.7,13.7,13.7Z"/>
              <path class="cls-9" d="M32.02,101.39c-5.89,5.97-9.54,14.15-9.54,23.15v20.42c5.52-1.77,9.54-6.96,9.54-13.05v-30.53Z"/>
              <path class="cls-9" d="M79.03,101.39c5.89,5.97,9.54,14.15,9.54,23.15v20.42c-5.52-1.77-9.54-6.96-9.54-13.05v-30.53Z"/>
              <g>
                <path class="cls-3" d="M55.83,98.53c-5.29,0-9.58-4.29-9.58-9.58v-3.29c0-.93.75-1.68,1.68-1.68h15.79c.93,0,1.68.75,1.68,1.68v3.29c0,5.29-4.29,9.58-9.58,9.58Z"/>
                <rect class="cls-1" x="88.62" y="33.32" width="1.79" height="21.21"/>
                <g>
                  <path class="cls-9" d="M85.68,31.23c0-2.12,1.72-3.84,3.83-3.84s3.83,1.72,3.83,3.84-1.72,3.84-3.83,3.84-3.83-1.72-3.83-3.84Z"/>
                  <path class="cls-2" d="M89.51,33.93c-1.92,0-3.51-1.42-3.79-3.27-.03.19-.05.37-.05.57,0,2.12,1.72,3.84,3.84,3.84s3.83-1.72,3.83-3.84c0-.19-.02-.38-.05-.57-.27,1.85-1.86,3.27-3.79,3.27Z"/>
                  <path class="cls-5" d="M89.51,29.28c.81,0,1.57.14,2.24.4.27.1.5-.24.3-.45-.63-.68-1.53-1.11-2.53-1.11s-1.9.43-2.53,1.11c-.2.21.03.55.3.45.67-.25,1.43-.4,2.24-.4Z"/>
                </g>
                <circle class="cls-9" cx="55.53" cy="59.75" r="31.17" transform="translate(-15.51 99.83) rotate(-76.53)"/>
                <path class="cls-2" d="M55.53,83.67c-15.99,0-29.14-12.04-30.94-27.54-.14,1.19-.23,2.4-.23,3.62,0,17.21,13.95,31.17,31.17,31.17s31.17-13.95,31.17-31.17c0-1.23-.09-2.43-.23-3.62-1.8,15.5-14.95,27.54-30.94,27.54Z"/>
                <circle class="cls-3" cx="55.53" cy="59.75" r="22.44"/>
                <path class="cls-6" d="M55.67,75.68c-2.25,0-4.09-1.84-4.09-4.09v-2.87c0-2.25,1.84-4.09,4.09-4.09s4.09,1.84,4.09,4.09v2.87c0,2.25-1.84,4.09-4.09,4.09Z"/>
                <path class="cls-6" d="M45.23,62.72c-1.89,0-3.42-1.54-3.42-3.42v-6.62c0-1.89,1.54-3.42,3.42-3.42s3.42,1.54,3.42,3.42v6.62c0,1.89-1.53,3.42-3.42,3.42ZM45.23,51.05c-.9,0-1.63.73-1.63,1.63v6.62c0,.9.73,1.63,1.63,1.63s1.63-.73,1.63-1.63v-6.62c0-.9-.73-1.63-1.63-1.63Z"/>
                <path class="cls-6" d="M66.27,62.72c-1.89,0-3.42-1.54-3.42-3.42v-6.62c0-1.89,1.54-3.42,3.42-3.42s3.42,1.54,3.42,3.42v6.62c0,1.89-1.53,3.42-3.42,3.42ZM66.27,51.05c-.9,0-1.63.73-1.63,1.63v6.62c0,.9.73,1.63,1.63,1.63s1.63-.73,1.63-1.63v-6.62c0-.9-.73-1.63-1.63-1.63Z"/>
                <g>
                  <path class="cls-3" d="M86.02,68.05h-.49c-1.13-5.48-1.13-11.14,0-16.62h.49c4.41,0,8.2,3.72,8.31,8.31-.11,4.59-3.9,8.32-8.31,8.31Z"/>
                  <path class="cls-5" d="M86.43,56.09c.07-.96.17-1.93.3-2.89.06-.43.54-.77.94-.65,2.26.69,4.12,2.45,5.01,4.71.21.54-.4,1.08-.98.85-1.4-.56-3.01-1.03-4.74-1.37-.33-.07-.56-.33-.54-.65Z"/>
                  <path class="cls-2" d="M88.72,65.26c-.94.24-1.97-.37-2.2-1.31-.85-3.61-1.36-7.26-1.29-10.85-.68,4.16-.72,8.39-.11,12.56.02.14.04.28.06.42.1.66.22,1.31.36,1.97h.49c3.25,0,5.93-1.93,7.4-4.73-.97.87-3.16,1.54-4.71,1.94Z"/>
                </g>
                <g>
                  <path class="cls-3" d="M25.14,68.05h.49c1.14-5.48,1.14-11.14,0-16.62h-.49c-4.41,0-8.2,3.72-8.31,8.31.11,4.59,3.9,8.32,8.31,8.31Z"/>
                  <path class="cls-5" d="M24.73,56.09c-.07-.96-.17-1.93-.3-2.89-.06-.43-.54-.77-.94-.65-2.26.69-4.12,2.45-5.01,4.71-.21.54.4,1.08.98.85,1.4-.56,3.01-1.03,4.74-1.37.33-.07.56-.33.54-.65Z"/>
                  <path class="cls-2" d="M22.45,65.26c.94.24,1.97-.37,2.2-1.31.85-3.61,1.36-7.26,1.29-10.85.68,4.16.72,8.39.11,12.56-.02.14-.04.28-.06.42-.1.66-.22,1.31-.36,1.97h-.49c-3.25,0-5.93-1.93-7.4-4.73.97.87,3.16,1.54,4.71,1.94Z"/>
                </g>
                <path class="cls-4" d="M55.5,34.09c5.83,0,11.3,1.24,16.07,3.41.98.44,1.81-.87.97-1.53-4.68-3.71-10.59-5.94-17.04-5.94s-12.35,2.22-17.04,5.94c-.84.67,0,1.98.97,1.53,4.76-2.17,10.24-3.41,16.07-3.41Z"/>
                <path class="cls-2" d="M55.5,76.69c-5.21,0-10.09-1.01-14.32-2.76-.61-.25-1.13.51-.67.97,3.83,3.85,9.13,6.25,14.99,6.25s11.16-2.39,14.99-6.25c.46-.47-.06-1.23-.67-.97-4.23,1.75-9.11,2.76-14.32,2.76Z"/>
                <path class="cls-5" d="M55.63,44.82c4.66,0,9.04.79,12.89,2.19,1.57.57,2.85-1.29,1.71-2.46-3.64-3.74-8.83-6.08-14.6-6.08s-10.96,2.34-14.6,6.08c-1.14,1.17.15,3.03,1.71,2.46,3.85-1.4,8.23-2.19,12.89-2.19Z"/>
              </g>
              <path class="cls-3" d="M85.81,123.9c.93,0,1.83-.1,2.71-.25-.23-8.64-3.8-16.49-9.49-22.26v20.92c2.05,1.01,4.35,1.59,6.79,1.59Z"/>
              <path class="cls-3" d="M25.2,123.9c-.93,0-1.85-.1-2.74-.25.24-8.64,3.84-16.49,9.58-22.26v20.92c-2.07,1.01-4.39,1.59-6.85,1.59Z"/>
              <g>
                <g>
                  <circle class="cls-9" cx="25.6" cy="108.52" r="13.54" transform="translate(-85.62 116.48) rotate(-80.82)"/>
                  <path class="cls-2" d="M25.6,118.06c-6.8,0-12.41-5.01-13.38-11.54-.1.66-.16,1.32-.16,2,0,7.48,6.06,13.54,13.54,13.54s13.54-6.06,13.54-13.54c0-.68-.07-1.35-.16-2-.97,6.53-6.58,11.54-13.38,11.54Z"/>
                  <path class="cls-4" d="M25.6,101.66c2.85,0,5.54.51,7.9,1.41.96.37,1.75-.83,1.05-1.58-2.23-2.4-5.41-3.91-8.95-3.91s-6.72,1.51-8.95,3.91c-.7.75.09,1.95,1.05,1.58,2.36-.9,5.04-1.41,7.9-1.41Z"/>
                </g>
                <g>
                  <circle class="cls-9" cx="85.81" cy="108.52" r="13.54" transform="translate(-35.01 175.92) rotate(-80.82)"/>
                  <path class="cls-2" d="M85.81,118.06c-6.8,0-12.41-5.01-13.38-11.54-.1.66-.16,1.32-.16,2,0,7.48,6.06,13.54,13.54,13.54s13.54-6.06,13.54-13.54c0-.68-.07-1.35-.16-2-.97,6.53-6.58,11.54-13.38,11.54Z"/>
                  <path class="cls-4" d="M85.81,101.66c2.85,0,5.54.51,7.9,1.41.96.37,1.75-.83,1.05-1.58-2.23-2.4-5.41-3.91-8.95-3.91s-6.72,1.51-8.95,3.91c-.7.75.09,1.95,1.05,1.58,2.36-.9,5.04-1.41,7.9-1.41Z"/>
                </g>
              </g>
              <path class="cls-4" d="M71.34,97.74c-.27-.26-.66-.34-1-.19-1.69.71-7.14,5.15-14.5,5.17-7.37-.02-12.82-4.46-14.5-5.17-.35-.15-.73-.07-1,.19l-1.15,1.11c-.29.28-.37.71-.19,1.08.68,1.41,2.36,4.95,2.89,6.81.67,2.37.42,9.17,3.96,4.86,3.16-3.83,8.51-3.82,10-3.82.97,0,6.84-.02,10,3.82,3.54,4.3,3.29-2.5,3.96-4.86.53-1.87,2.21-5.4,2.89-6.81.18-.36.1-.8-.19-1.08l-1.15-1.11Z"/>
            </g>
          </g>
        </g>
      </g>
    </g>
  </g>
</svg>