<?xml version="1.0" encoding="UTF-8"?>
<svg xmlns="http://www.w3.org/2000/svg" xmlns:xlink="http://www.w3.org/1999/xlink" viewBox="0 0 111.13 111.13">
  <defs>
    <style>
      .cls-1 {
        fill: #3a3687;
      }

      .cls-2 {
        fill: #c5c3e6;
        mix-blend-mode: multiply;
      }

      .cls-3 {
        fill: #474ca8;
      }

      .cls-4 {
        fill: #235ecc;
      }

      .cls-4, .cls-5 {
        mix-blend-mode: screen;
      }

      .cls-5 {
        fill: #272da1;
      }

      .cls-6 {
        fill: #42f9ff;
      }

      .cls-7 {
        isolation: isolate;
      }

      .cls-8 {
        fill: #e4edff;
      }

      .cls-9 {
        fill: #70a2ff;
      }

      .cls-10 {
        opacity: .37;
      }

      .cls-11 {
        clip-path: url(#clippath);
      }
    </style>
    <clipPath id="clippath">
      <circle class="cls-8" cx="55.56" cy="55.56" r="55.56" transform="translate(-16.62 86.62) rotate(-68.28)"/>
    </clipPath>
  </defs>
  <g class="cls-7">
    <g id="Layer_2" data-name="Layer 2">
      <g id="_ò__1" data-name="ò‡_1">
        <g>
          <circle class="cls-8" cx="55.56" cy="55.56" r="55.56" transform="translate(-16.62 86.62) rotate(-68.28)"/>
          <g class="cls-11">
            <g class="cls-10">
              <rect class="cls-3" x="23.05" y="32.18" width="5.96" height="36.73"/>
              <rect class="cls-3" x="31.65" y="40.43" width="5.96" height="28.49"/>
              <rect class="cls-3" x="40.24" y="53.24" width="5.96" height="15.67"/>
              <rect class="cls-3" x="14.46" y="40.43" width="5.96" height="28.49"/>
              <rect class="cls-3" x="48.83" y="45.86" width="5.96" height="23.05"/>
              <rect class="cls-3" x="5.87" y="50.47" width="5.96" height="18.44"/>
              <rect class="cls-3" x="57.42" y="35.02" width="5.96" height="33.9"/>
              <rect class="cls-3" x="66.02" y="21.82" width="5.96" height="47.1"/>
              <rect class="cls-3" x="74.61" y="13.52" width="5.96" height="55.4"/>
              <rect class="cls-3" x="83.2" y="27.75" width="5.96" height="41.17"/>
              <rect class="cls-3" x="91.79" y="37.01" width="5.96" height="31.9"/>
              <rect class="cls-3" x="100.39" y="51.56" width="5.96" height="17.36"/>
              <rect class="cls-3" x="108.98" y="60.35" width="5.96" height="8.56"/>
              <rect class="cls-3" x="-2.72" y="60.35" width="5.96" height="8.56" transform="translate(.52 129.27) rotate(180)"/>
            </g>
            <g>
              <rect class="cls-1" x="55.22" y="15.97" width="1.79" height="18.18"/>
              <g>
                <path class="cls-9" d="M52.28,12.64c0-2.12,1.72-3.84,3.83-3.84s3.83,1.72,3.83,3.84-1.72,3.83-3.83,3.83-3.83-1.72-3.83-3.83Z"/>
                <path class="cls-2" d="M56.11,15.34c-1.92,0-3.51-1.42-3.79-3.27-.03.19-.05.37-.05.57,0,2.12,1.72,3.83,3.83,3.83s3.83-1.72,3.83-3.83c0-.19-.02-.38-.05-.57-.27,1.85-1.86,3.27-3.79,3.27Z"/>
                <path class="cls-4" d="M56.11,10.69c.81,0,1.57.14,2.24.4.27.1.5-.24.3-.45-.63-.68-1.53-1.11-2.53-1.11s-1.9.43-2.53,1.11c-.2.21.03.55.3.45.67-.25,1.43-.4,2.24-.4Z"/>
              </g>
              <rect class="cls-3" x="14.86" y="99.31" width="8.69" height="46.1" transform="translate(13.43 246.09) rotate(-168.41)"/>
              <rect class="cls-3" x="44.77" y="82.18" width="22.68" height="7.57"/>
              <rect class="cls-9" x="22.61" y="35.57" width="66.77" height="46.74" rx="15.61" ry="15.61"/>
              <path class="cls-2" d="M78.88,78.6h-45.78c-2.19,0-4.27-.43-6.2-1.19,2.85,3.01,6.87,4.91,11.32,4.91h35.55c4.45,0,8.47-1.9,11.32-4.91-1.93.76-4.01,1.19-6.2,1.19Z"/>
              <rect class="cls-3" x="37.86" y="31.48" width="36.27" height="54.92" rx="10.91" ry="10.91" transform="translate(114.94 2.95) rotate(90)"/>
              <path class="cls-5" d="M39.02,47.12h33.95c3.38,0,6.4,1.45,8.43,3.73-.96-4.59-5.22-8.05-10.34-8.05h-30.13c-5.11,0-9.37,3.46-10.34,8.05,2.02-2.28,5.04-3.73,8.43-3.73Z"/>
              <path class="cls-6" d="M71.97,60.64s-.13.07-.38.2c-.24.14-.61.33-1.04.55-.42.23-.98.46-1.59.73-.61.26-1.29.54-2.05.79-2.99,1.06-6.98,1.81-11.01,1.79-.41-.02-1.15,0-1.55-.04-.46-.03-.95-.04-1.45-.09-.99-.09-1.96-.2-2.89-.37-.94-.15-1.84-.36-2.7-.57-.85-.23-1.67-.46-2.41-.73-.75-.25-1.43-.53-2.05-.79-.6-.27-1.16-.5-1.59-.74-.44-.23-.8-.41-1.04-.54-.25-.13-.38-.2-.38-.2,0,0,.06.14.16.4.12.25.27.65.55,1.08.52.91,1.43,2.15,2.82,3.35,1.38,1.2,3.25,2.36,5.43,3.14,1.08.4,2.24.72,3.44.92.59.1,1.21.2,1.86.24.71.07,1.09.06,1.8.09,1.23-.04,2.47-.09,3.66-.33,1.2-.2,2.36-.51,3.44-.92,2.18-.78,4.04-1.94,5.42-3.14,1.4-1.2,2.3-2.43,2.83-3.35.29-.45.43-.83.54-1.08.11-.26.16-.4.16-.4Z"/>
              <path class="cls-2" d="M73.28,71.53h-34.58c-3.44,0-6.52-1.45-8.58-3.73.98,4.59,5.32,8.05,10.53,8.05h30.69c5.21,0,9.54-3.46,10.53-8.05-2.06,2.28-5.14,3.73-8.58,3.73Z"/>
              <g>
                <circle class="cls-6" cx="46.32" cy="53.26" r="3.84"/>
                <circle class="cls-6" cx="65.5" cy="53.26" r="3.84"/>
              </g>
              <rect class="cls-2" x="44.77" y="82.18" width="22.68" height="3.43"/>
              <path class="cls-3" d="M89.8,67.8h-.49v-16.62h.49c4.59,0,8.31,3.72,8.31,8.31s-3.72,8.31-8.31,8.31Z"/>
              <path class="cls-5" d="M90.78,55.85v-2.89c0-.43.41-.78.83-.65,2.31.69,4.16,2.45,4.99,4.7.2.54-.36,1.08-.89.85-1.29-.56-2.77-1.02-4.4-1.36-.31-.06-.54-.33-.54-.65Z"/>
              <path class="cls-2" d="M92.78,65c-.92.24-1.83-.37-1.96-1.31l-1.51-10.82v14.93h.49c3.3,0,6.13-1.94,7.47-4.73-.9.87-2.98,1.54-4.49,1.93Z"/>
              <path class="cls-3" d="M22.12,67.8h.49v-16.62h-.49c-4.59,0-8.31,3.72-8.31,8.31s3.72,8.31,8.31,8.31Z"/>
              <path class="cls-5" d="M21.14,55.85v-2.89c0-.43-.41-.78-.83-.65-2.31.69-4.16,2.45-4.99,4.7-.2.54.36,1.08.89.85,1.29-.56,2.77-1.02,4.4-1.36.31-.06.54-.33.54-.65Z"/>
              <path class="cls-2" d="M19.14,65c.92.24,1.83-.37,1.96-1.31l1.51-10.82v14.93h-.49c-3.3,0-6.13-1.94-7.47-4.73.9.87,2.98,1.54,4.49,1.93Z"/>
              <rect class="cls-3" x="39.93" y="31.87" width="32.12" height="7.41" rx="2.88" ry="2.88"/>
              <path class="cls-3" d="M56.09,171.38c-18.17,0-33.04-14.87-33.04-33.04v-26.33c0-12.63,10.33-22.96,22.96-22.96h20.16c12.63,0,22.96,10.33,22.96,22.96v26.33c0,18.17-14.87,33.04-33.04,33.04Z"/>
              <rect class="cls-3" x="87.19" y="99.31" width="8.69" height="46.1" transform="translate(-22.72 20.89) rotate(-11.59)"/>
              <circle class="cls-9" cx="86.96" cy="98.68" r="13.79"/>
              <circle class="cls-9" cx="24.57" cy="98.68" r="13.79"/>
              <path class="cls-2" d="M86.96,108.39c-6.92,0-12.63-5.1-13.62-11.75-.1.67-.17,1.34-.17,2.04,0,7.61,6.17,13.79,13.79,13.79s13.79-6.17,13.79-13.79c0-.69-.07-1.37-.17-2.04-.99,6.65-6.7,11.75-13.62,11.75Z"/>
              <path class="cls-2" d="M24.57,108.39c-6.92,0-12.63-5.1-13.62-11.75-.1.67-.17,1.34-.17,2.04,0,7.61,6.17,13.79,13.79,13.79s13.79-6.17,13.79-13.79c0-.69-.07-1.37-.17-2.04-.99,6.65-6.7,11.75-13.62,11.75Z"/>
              <path class="cls-4" d="M24.63,91.69c2.91,0,5.64.52,8.04,1.43.98.37,1.78-.85,1.07-1.61-2.27-2.45-5.51-3.98-9.11-3.98s-6.84,1.53-9.11,3.98c-.71.77.09,1.99,1.07,1.61,2.4-.92,5.14-1.43,8.04-1.43Z"/>
              <path class="cls-4" d="M86.96,91.69c2.91,0,5.64.52,8.04,1.43.98.37,1.78-.85,1.07-1.61-2.27-2.45-5.51-3.98-9.11-3.98s-6.84,1.53-9.11,3.98c-.71.77.09,1.99,1.07,1.61,2.4-.92,5.14-1.43,8.04-1.43Z"/>
              <path class="cls-9" d="M56.09,96.27c-7.54,0-13.7,6.17-13.7,13.7v58.38c4.18,1.93,8.82,3.03,13.7,3.03s9.52-1.1,13.7-3.03v-58.38c0-7.54-6.17-13.7-13.7-13.7Z"/>
              <circle class="cls-3" cx="56.11" cy="111.66" r="10.7" transform="translate(-65.42 140.75) rotate(-76.78)"/>
              <circle class="cls-6" cx="56.11" cy="111.66" r="8.94"/>
              <path class="cls-5" d="M41.69,94.18l1.81,3.16c.32.56.92.91,1.57.91h22.07c.65,0,1.25-.35,1.57-.91l1.81-3.16c.69-1.21-.18-2.72-1.57-2.72h-25.69c-1.39,0-2.27,1.51-1.57,2.72Z"/>
            </g>
          </g>
        </g>
      </g>
    </g>
  </g>
</svg>