<?xml version="1.0" encoding="UTF-8"?>
<svg xmlns="http://www.w3.org/2000/svg" xmlns:xlink="http://www.w3.org/1999/xlink" viewBox="0 0 111.13 111.13">
  <defs>
    <style>
      .cls-1 {
        fill: #c5c3e6;
        mix-blend-mode: multiply;
      }

      .cls-2 {
        fill: #474ca8;
      }

      .cls-3 {
        fill: #235ecc;
      }

      .cls-3, .cls-4 {
        mix-blend-mode: screen;
      }

      .cls-4 {
        fill: #272da1;
      }

      .cls-5 {
        fill: #42f9ff;
      }

      .cls-6 {
        isolation: isolate;
      }

      .cls-7 {
        fill: #e4edff;
      }

      .cls-8 {
        fill: #70a2ff;
      }

      .cls-9 {
        opacity: .37;
      }

      .cls-10 {
        clip-path: url(#clippath);
      }
    </style>
    <clipPath id="clippath">
      <circle class="cls-7" cx="55.56" cy="55.56" r="55.56" transform="translate(-8.06 101.69) rotate(-80.94)"/>
    </clipPath>
  </defs>
  <g class="cls-6">
    <g id="Layer_2" data-name="Layer 2">
      <g id="_ò__1" data-name="ò‡_1">
        <g>
          <circle class="cls-7" cx="55.56" cy="55.56" r="55.56" transform="translate(-8.06 101.69) rotate(-80.94)"/>
          <g class="cls-10">
            <g class="cls-9">
              <rect class="cls-2" x="26.17" y="18.58" width="4.27" height="51.42"/>
              <rect class="cls-2" x="34.18" y="26.4" width="4.27" height="35.77"/>
              <rect class="cls-2" x="42.2" y="35.3" width="4.27" height="17.98"/>
              <rect class="cls-2" x="18.15" y="26.4" width="4.27" height="35.77"/>
              <rect class="cls-2" x="50.22" y="31.07" width="4.27" height="26.44"/>
              <rect class="cls-2" x="10.13" y="33.71" width="4.27" height="21.15"/>
              <rect class="cls-2" x="58.23" y="24.85" width="4.27" height="38.88"/>
              <rect class="cls-2" x="66.25" y="16.04" width="4.27" height="56.5"/>
              <rect class="cls-2" x="74.26" y="6.31" width="4.27" height="75.95"/>
              <rect class="cls-2" x="82.28" y="16.04" width="4.27" height="56.5"/>
              <rect class="cls-2" x="90.3" y="25.99" width="4.27" height="36.59"/>
              <rect class="cls-2" x="98.31" y="34.33" width="4.27" height="19.91"/>
              <rect class="cls-2" x="106.33" y="39.38" width="4.27" height="9.82"/>
              <rect class="cls-2" x="2.12" y="39.38" width="4.27" height="9.82" transform="translate(8.51 88.57) rotate(180)"/>
            </g>
            <g>
              <g>
                <circle class="cls-2" cx="36.69" cy="97.05" r="14"/>
                <circle class="cls-2" cx="74.92" cy="97.05" r="14"/>
                <path class="cls-1" d="M88.75,94.98c-.52,3.53-2.36,6.62-4.99,8.77-1.44,1.17-3.59.73-4.58-.84-1.03-1.64-2.31-3.72-3.56-5.86-2.74-4.69-6.5-8.22-6.5-8.22l8.8,17.75c-.97.21-1.97.34-3.01.34-7.03,0-12.83-5.18-13.83-11.93-.1.68-.17,1.37-.17,2.07,0,7.73,6.27,14,14,14s14-6.27,14-14c0-.71-.07-1.39-.17-2.07Z"/>
                <path class="cls-1" d="M22.9,94.98c.52,3.53,2.35,6.62,4.98,8.77,1.43,1.17,3.58.73,4.57-.84,1.03-1.64,2.3-3.72,3.55-5.86,2.73-4.69,6.48-8.22,6.48-8.22l-8.78,17.75c.97.21,1.97.34,3,.34,7.01,0,12.79-5.18,13.79-11.93.1.68.17,1.37.17,2.07,0,7.73-6.25,14-13.96,14s-13.96-6.27-13.96-14c0-.71.07-1.39.17-2.07Z"/>
                <path class="cls-8" d="M87.28,146.22c0,17.48-14.17,31.66-31.66,31.66s-31.66-14.17-31.66-31.66,14.17-67,31.66-67,31.66,49.52,31.66,67Z"/>
                <path class="cls-2" d="M55.62,88.57c4.1,0,8-.8,11.6-2.22-3.59-4.39-7.5-7.13-11.6-7.13s-8.01,2.74-11.6,7.13c3.6,1.42,7.5,2.22,11.6,2.22Z"/>
                <path class="cls-3" d="M55.62,97.05c4.53,0,8.92-.35,13.15-.98.9-.13,1.38-1.15.91-1.93-.91-1.51-1.85-2.92-2.81-4.19-.31-.41-.85-.57-1.35-.44-3.16.84-6.48,1.31-9.9,1.31s-6.74-.46-9.9-1.31c-.5-.13-1.03.03-1.35.44-.97,1.27-1.91,2.68-2.81,4.19-.47.78.01,1.8.91,1.93,4.23.63,8.62.98,13.15.98Z"/>
                <circle class="cls-8" cx="55.62" cy="53.66" r="31.66" transform="translate(-15.48 83.93) rotate(-67.03)"/>
                <path class="cls-1" d="M55.62,77.95c-16.24,0-29.6-12.23-31.43-27.98-.14,1.21-.23,2.43-.23,3.68,0,17.48,14.17,31.66,31.66,31.66s31.66-14.17,31.66-31.66c0-1.25-.09-2.47-.23-3.68-1.83,15.75-15.19,27.98-31.43,27.98Z"/>
                <g>
                  <circle class="cls-2" cx="55.62" cy="111.06" r="11.95" transform="translate(-62.24 71.86) rotate(-45)"/>
                  <circle class="cls-5" cx="55.62" cy="111.06" r="9.98"/>
                </g>
                <circle class="cls-2" cx="55.62" cy="53.66" r="22.79"/>
                <path class="cls-5" d="M74.79,51.6c-5.18-2.52-9.67-2.23-14.62,0,1.97-7.25,12.39-7.47,14.62,0Z"/>
                <path class="cls-5" d="M53.21,62.36c5.71.78,9.89-.88,13.9-4.54.38,7.5-9.45,10.95-13.9,4.54Z"/>
                <path class="cls-5" d="M51.76,51.6c-5.18-2.52-9.67-2.23-14.62,0,1.97-7.25,12.39-7.47,14.62,0Z"/>
                <path class="cls-4" d="M85.72,89.72c-2.84-3.07-6.89-4.99-11.4-4.99-1.21,0-2.39.15-3.52.41-.53.12-.78.73-.51,1.19l1.93,3.25c.15.26.44.41.74.39.45-.03.89-.05,1.35-.05,3.63,0,7.05.65,10.05,1.79,1.22.46,2.23-1.05,1.35-2Z"/>
                <path class="cls-4" d="M26.15,89.72c2.84-3.07,6.89-4.99,11.4-4.99,1.21,0,2.39.15,3.52.41.53.12.78.73.51,1.19l-1.93,3.25c-.15.26-.44.41-.74.39-.45-.03-.89-.05-1.35-.05-3.63,0-7.05.65-10.05,1.79-1.22.46-2.23-1.05-1.35-2Z"/>
                <path class="cls-3" d="M55.62,28.55c6.27,0,12.16,1.33,17.28,3.67,1.05.48,1.94-.93,1.04-1.65-5.03-4-11.39-6.39-18.32-6.39s-13.29,2.39-18.32,6.39c-.9.72,0,2.13,1.04,1.65,5.12-2.34,11.01-3.67,17.28-3.67Z"/>
                <path class="cls-1" d="M55.62,70.26c-5.61,0-10.86-1.09-15.41-2.97-.65-.27-1.22.55-.72,1.05,4.12,4.15,9.82,6.72,16.13,6.72s12-2.57,16.13-6.72c.5-.5-.07-1.32-.72-1.05-4.55,1.89-9.8,2.97-15.41,2.97Z"/>
                <path class="cls-4" d="M55.76,39.71c4.65,0,9.02.85,12.86,2.36,1.56.61,2.85-1.39,1.71-2.65-3.63-4.02-8.81-6.53-14.57-6.53s-10.94,2.52-14.57,6.53c-1.14,1.26.15,3.26,1.71,2.65,3.84-1.5,8.21-2.36,12.86-2.36Z"/>
              </g>
              <g>
                <path class="cls-2" d="M85.26,65.39h-.69c-1.6-7.74-1.6-15.73,0-23.47h.69c6.23-.01,11.59,5.25,11.73,11.73-.15,6.48-5.5,11.75-11.73,11.73Z"/>
                <path class="cls-4" d="M85.84,48.49c.1-1.36.24-2.72.43-4.08.08-.61.76-1.09,1.33-.92,3.19.97,5.82,3.47,7.08,6.65.3.77-.56,1.52-1.38,1.19-1.98-.79-4.24-1.45-6.7-1.93-.47-.09-.79-.47-.76-.92Z"/>
                <path class="cls-1" d="M89.07,61.45c-1.33.34-2.79-.52-3.11-1.84-1.2-5.1-1.92-10.25-1.83-15.32-.96,5.87-1.02,11.85-.16,17.73.03.2.06.4.09.59.15.93.31,1.85.5,2.78h.69c4.59,0,8.37-2.73,10.46-6.68-1.37,1.23-4.46,2.18-6.65,2.74Z"/>
              </g>
              <g>
                <path class="cls-2" d="M25.73,65.39h.69c1.6-7.74,1.6-15.73,0-23.47h-.69c-6.23-.01-11.59,5.25-11.73,11.73.15,6.48,5.5,11.75,11.73,11.73Z"/>
                <path class="cls-4" d="M25.15,48.49c-.1-1.36-.24-2.72-.43-4.08-.08-.61-.76-1.09-1.33-.92-3.19.97-5.82,3.47-7.08,6.65-.3.77.56,1.52,1.38,1.19,1.98-.79,4.24-1.45,6.7-1.93.47-.09.79-.47.76-.92Z"/>
                <path class="cls-1" d="M21.92,61.45c1.33.34,2.79-.52,3.11-1.84,1.2-5.1,1.92-10.25,1.83-15.32.96,5.87,1.02,11.85.16,17.73-.03.2-.06.4-.09.59-.15.93-.31,1.85-.5,2.78h-.69c-4.59,0-8.37-2.73-10.46-6.68,1.37,1.23,4.46,2.18,6.65,2.74Z"/>
              </g>
            </g>
          </g>
        </g>
      </g>
    </g>
  </g>
</svg>