<?xml version="1.0" encoding="UTF-8"?>
<svg xmlns="http://www.w3.org/2000/svg" xmlns:xlink="http://www.w3.org/1999/xlink" viewBox="0 0 111.13 111.13">
  <defs>
    <style>
      .cls-1 {
        fill: #3a3687;
      }

      .cls-2 {
        fill: #c5c3e6;
      }

      .cls-2, .cls-3 {
        mix-blend-mode: multiply;
      }

      .cls-4 {
        fill: #474ca8;
      }

      .cls-5 {
        fill: #235ecc;
      }

      .cls-5, .cls-6 {
        mix-blend-mode: screen;
      }

      .cls-6 {
        fill: #272da1;
      }

      .cls-7 {
        fill: #bab8d9;
      }

      .cls-8 {
        fill: #42f9ff;
      }

      .cls-9 {
        isolation: isolate;
      }

      .cls-10 {
        fill: #e4edff;
      }

      .cls-11 {
        fill: #70a2ff;
      }

      .cls-12 {
        opacity: .37;
      }

      .cls-13 {
        clip-path: url(#clippath);
      }
    </style>
    <clipPath id="clippath">
      <circle class="cls-10" cx="55.56" cy="55.56" r="55.56"/>
    </clipPath>
  </defs>
  <g class="cls-9">
    <g id="Layer_2" data-name="Layer 2">
      <g id="_ò__1" data-name="ò‡_1">
        <g>
          <circle class="cls-10" cx="55.56" cy="55.56" r="55.56"/>
          <g class="cls-13">
            <g class="cls-12">
              <rect class="cls-4" x="47.11" y="38.84" width="17" height="5.41"/>
              <rect class="cls-4" x="25.11" y="53.79" width="17" height="5.41"/>
              <rect class="cls-4" x="69.11" y="53.79" width="17" height="5.41"/>
              <rect class="cls-4" x="25.11" y="46.29" width="17" height="5.41"/>
              <rect class="cls-4" x="69.11" y="46.29" width="17" height="5.41"/>
              <rect class="cls-4" x="91.11" y="39.11" width="17" height="5.41"/>
              <rect class="cls-4" x="69.11" y="24.86" width="17" height="5.41"/>
              <rect class="cls-4" x="25.11" y="38.78" width="17" height="5.41"/>
              <rect class="cls-4" x="25.11" y="76.3" width="17" height="5.41"/>
              <rect class="cls-4" x="25.11" y="68.8" width="17" height="5.41"/>
              <rect class="cls-4" x="25.11" y="61.29" width="17" height="5.41"/>
              <rect class="cls-4" x="3.11" y="76.3" width="17" height="5.41"/>
              <rect class="cls-4" x="3.11" y="68.8" width="17" height="5.41"/>
              <rect class="cls-4" x="3.11" y="61.29" width="17" height="5.41"/>
              <rect class="cls-4" x="47.11" y="76.3" width="17" height="5.41"/>
              <rect class="cls-4" x="47.11" y="68.8" width="17" height="5.41"/>
              <rect class="cls-4" x="47.11" y="61.29" width="17" height="5.41"/>
              <rect class="cls-4" x="69.11" y="76.3" width="17" height="5.41"/>
              <rect class="cls-4" x="69.11" y="68.8" width="17" height="5.41"/>
              <rect class="cls-4" x="69.11" y="61.29" width="17" height="5.41"/>
              <rect class="cls-4" x="91.11" y="76.3" width="17" height="5.41"/>
              <rect class="cls-4" x="91.11" y="68.8" width="17" height="5.41"/>
              <rect class="cls-4" x="25.11" y="91.31" width="17" height="5.41"/>
              <rect class="cls-4" x="25.11" y="83.8" width="17" height="5.41"/>
              <rect class="cls-4" x="3.11" y="91.31" width="17" height="5.41"/>
              <rect class="cls-4" x="3.11" y="83.8" width="17" height="5.41"/>
              <rect class="cls-4" x="47.11" y="91.31" width="17" height="5.41"/>
              <rect class="cls-4" x="47.11" y="83.8" width="17" height="5.41"/>
              <rect class="cls-4" x="69.11" y="91.31" width="17" height="5.41"/>
              <rect class="cls-4" x="69.11" y="83.8" width="17" height="5.41"/>
              <rect class="cls-4" x="91.11" y="91.31" width="17" height="5.41"/>
              <rect class="cls-4" x="91.11" y="83.8" width="17" height="5.41"/>
              <rect class="cls-4" x="25.11" y="14.42" width="17" height="5.41"/>
              <rect class="cls-4" x="91.11" y="61.29" width="17" height="5.41"/>
              <rect class="cls-4" x="3.11" y="53.79" width="17" height="5.41"/>
              <rect class="cls-4" x="3.11" y="31.93" width="17" height="5.41"/>
            </g>
            <g>
              <path class="cls-11" d="M26.18,104.08c0-16.26,13.18-29.43,29.43-29.43s29.43,13.18,29.43,29.43-13.18,62.29-29.43,62.29-29.43-46.04-29.43-62.29Z"/>
              <g class="cls-3">
                <path class="cls-7" d="M60.09,135.91h-4.48v-1.05h4.48c1.37,0,2.59-.87,3.03-2.18l8.4-24.84,1,.34-8.4,24.84c-.59,1.73-2.21,2.89-4.03,2.89Z"/>
              </g>
              <g class="cls-3">
                <path class="cls-7" d="M55.56,135.91h-4.48c-1.83,0-3.45-1.16-4.03-2.89l-8.4-24.84,1-.34,8.4,24.84c.44,1.3,1.66,2.18,3.03,2.18h4.48v1.05Z"/>
              </g>
              <g class="cls-3">
                <path class="cls-7" d="M40.75,94.96l-.49-.93,6.18-3.23c.99-.52,2.11-.79,3.22-.79h6.09v1.05h-6.09c-.95,0-1.89.23-2.74.67l-6.18,3.23Z"/>
              </g>
              <g class="cls-3">
                <path class="cls-7" d="M70.37,94.96l-5.97-3.2c-.85-.46-1.82-.7-2.79-.7h-5.86v-1.05h5.86c1.14,0,2.28.29,3.29.83l5.97,3.2-.5.93Z"/>
              </g>
              <path class="cls-4" d="M38.05,80.5c5.15,3.07,11.14,4.86,17.56,4.86s12.41-1.79,17.56-4.86c-4.91-3.66-10.97-5.85-17.56-5.85s-12.66,2.19-17.56,5.85Z"/>
              <circle class="cls-11" cx="55.61" cy="50.88" r="29.43" transform="translate(-4.82 95.93) rotate(-79.16)"/>
              <path class="cls-5" d="M55.61,27.44c5.83,0,11.3,1.24,16.07,3.41.98.44,1.81-.87.97-1.53-4.68-3.71-10.59-5.94-17.04-5.94s-12.35,2.22-17.04,5.94c-.84.67,0,1.98.97,1.53,4.76-2.17,10.24-3.41,16.07-3.41Z"/>
              <path class="cls-2" d="M55.61,73.47c-15.1,0-27.52-11.37-29.22-26.01-.13,1.12-.21,2.26-.21,3.42,0,16.26,13.18,29.43,29.43,29.43s29.43-13.18,29.43-29.43c0-1.16-.08-2.3-.22-3.42-1.7,14.64-14.12,26.01-29.22,26.01Z"/>
              <path class="cls-4" d="M68.66,98.38c0,8.66,6.75,15.75,15.26,16.33.72-4.16,1.12-7.84,1.12-10.63,0-7.75-3.02-14.78-7.92-20.04-5.04,2.8-8.47,8.17-8.47,14.34Z"/>
              <path class="cls-11" d="M72.03,98.38c0-7.19,5.83-13.02,13.02-13.02s13.02,5.83,13.02,13.02-5.83,13.02-13.02,13.02-13.02-5.83-13.02-13.02Z"/>
              <path class="cls-4" d="M42.52,98.38c0,8.66-6.75,15.75-15.26,16.33-.73-4.16-1.12-7.84-1.12-10.63,0-7.75,3.02-14.78,7.92-20.04,5.04,2.8,8.47,8.17,8.47,14.34Z"/>
              <path class="cls-11" d="M39.15,98.38c0-7.19-5.83-13.02-13.02-13.02s-13.02,5.83-13.02,13.02,5.83,13.02,13.02,13.02,13.02-5.83,13.02-13.02Z"/>
              <path class="cls-2" d="M85.05,107.55c-6.53,0-11.93-4.82-12.86-11.09-.09.63-.16,1.27-.16,1.93,0,7.19,5.83,13.02,13.02,13.02s13.02-5.83,13.02-13.02c0-.66-.06-1.3-.16-1.93-.93,6.28-6.33,11.09-12.86,11.09Z"/>
              <path class="cls-2" d="M26.13,107.55c-6.53,0-11.93-4.82-12.86-11.09-.09.63-.16,1.27-.16,1.93,0,7.19,5.83,13.02,13.02,13.02s13.02-5.83,13.02-13.02c0-.66-.06-1.3-.16-1.93-.93,6.28-6.33,11.09-12.86,11.09Z"/>
              <path class="cls-5" d="M26.18,91.78c2.74,0,5.33.49,7.59,1.36.92.35,1.68-.8,1.01-1.52-2.14-2.31-5.2-3.76-8.6-3.76s-6.46,1.45-8.6,3.76c-.67.72.09,1.87,1.01,1.52,2.27-.86,4.85-1.36,7.59-1.36Z"/>
              <path class="cls-5" d="M85.05,91.78c2.74,0,5.33.49,7.59,1.36.92.35,1.68-.8,1.01-1.52-2.14-2.31-5.2-3.76-8.6-3.76s-6.46,1.45-8.6,3.76c-.67.72.09,1.87,1.01,1.52,2.27-.86,4.85-1.36,7.59-1.36Z"/>
              <circle class="cls-4" cx="55.61" cy="105.72" r="10.11" transform="translate(-57.63 143.74) rotate(-80.81)"/>
              <circle class="cls-8" cx="55.61" cy="105.72" r="8.44" transform="translate(-36.39 29.53) rotate(-22.62)"/>
              <rect class="cls-1" x="71.62" y="38.5" width="10.59" height="1.13" transform="translate(-5.09 65.84) rotate(-45)"/>
              <rect class="cls-1" x="33.76" y="33.77" width="1.13" height="10.59" transform="translate(-17.57 35.71) rotate(-45)"/>
              <path class="cls-5" d="M68.85,85.65c-.23-.22-.56-.29-.85-.16-1.44.61-6.07,2.33-12.33,2.34-6.27-.02-10.9-1.74-12.33-2.34-.29-.12-.62-.06-.85.16l-.98.94c-.25.24-.32.61-.17.92.58,1.2,2.01,4.2,2.46,5.79.57,2.01.36,7.79,3.37,4.14,2.68-3.26,7.23-3.24,8.5-3.24.82,0,5.82-.02,8.5,3.24,3.01,3.66,2.8-2.12,3.37-4.14.45-1.59,1.88-4.59,2.46-5.79.15-.31.08-.68-.17-.92l-.98-.94Z"/>
              <circle class="cls-4" cx="55.61" cy="50.88" r="21.19" transform="translate(-9.14 89.47) rotate(-73.25)"/>
              <path class="cls-2" d="M55.61,66.41c-5.21,0-10.09-1.01-14.32-2.76-.61-.25-1.13.51-.67.97,3.83,3.85,9.13,6.25,14.99,6.25s11.16-2.39,14.99-6.25c.46-.47-.06-1.23-.67-.97-4.23,1.75-9.11,2.76-14.32,2.76Z"/>
              <path class="cls-8" d="M41.35,54.94h28.44c.67,0,1.08.73.76,1.32-5.64,10.18-24.33,10.03-29.95,0-.33-.59.08-1.32.76-1.32Z"/>
              <path class="cls-8" d="M71.18,47.39c-4.3-2.09-8.02-1.85-12.13,0,1.63-6.01,10.28-6.2,12.13,0Z"/>
              <path class="cls-8" d="M52.08,47.39c-4.3-2.09-8.02-1.85-12.13,0,1.63-6.01,10.28-6.2,12.13,0Z"/>
              <path class="cls-6" d="M55.75,39.21c4.32,0,8.39.79,11.96,2.19,1.45.57,2.65-1.29,1.59-2.46-3.38-3.74-8.19-6.08-13.55-6.08s-10.17,2.34-13.55,6.08c-1.06,1.17.14,3.03,1.59,2.46,3.57-1.4,7.64-2.19,11.96-2.19Z"/>
            </g>
          </g>
        </g>
      </g>
    </g>
  </g>
</svg>