<?xml version="1.0" encoding="UTF-8"?>
<svg xmlns="http://www.w3.org/2000/svg" xmlns:xlink="http://www.w3.org/1999/xlink" viewBox="0 0 111.13 111.13">
  <defs>
    <style>
      .cls-1 {
        fill: #3a3687;
      }

      .cls-2 {
        fill: #c5c3e6;
        mix-blend-mode: multiply;
      }

      .cls-3 {
        fill: #474ca8;
      }

      .cls-4 {
        fill: #235ecc;
      }

      .cls-4, .cls-5 {
        mix-blend-mode: screen;
      }

      .cls-5 {
        fill: #272da1;
      }

      .cls-6 {
        fill: #42f9ff;
      }

      .cls-7 {
        isolation: isolate;
      }

      .cls-8 {
        fill: #e4edff;
      }

      .cls-9 {
        fill: #70a2ff;
      }

      .cls-10 {
        opacity: .37;
      }

      .cls-11 {
        clip-path: url(#clippath);
      }
    </style>
    <clipPath id="clippath">
      <circle class="cls-8" cx="55.56" cy="55.56" r="55.56" transform="translate(-17.25 26.01) rotate(-22.91)"/>
    </clipPath>
  </defs>
  <g class="cls-7">
    <g id="Layer_2" data-name="Layer 2">
      <g id="_ò__1" data-name="ò‡_1">
        <g>
          <circle class="cls-8" cx="55.56" cy="55.56" r="55.56" transform="translate(-17.25 26.01) rotate(-22.91)"/>
          <g class="cls-11">
            <g class="cls-10">
              <path class="cls-3" d="M3.18,35.4c1.32,1.51,1.97,3.02,2.48,4.53.46,1.51.68,3.02.68,4.53,0,1.51-.21,3.02-.67,4.53-.5,1.51-1.16,3.02-2.48,4.53-1.32-1.51-1.98-3.02-2.48-4.53-.46-1.51-.68-3.02-.67-4.53,0-1.51.22-3.02.68-4.53.5-1.51,1.16-3.02,2.47-4.53Z"/>
              <path class="cls-3" d="M12.14,29.13c1.32,2.55,1.97,5.11,2.47,7.66.46,2.55.68,5.11.68,7.66,0,2.55-.21,5.11-.67,7.66-.5,2.55-1.16,5.11-2.48,7.66-1.32-2.55-1.98-5.11-2.48-7.66-.46-2.55-.68-5.11-.67-7.66,0-2.55.22-5.11.68-7.66.5-2.55,1.16-5.11,2.47-7.66Z"/>
              <path class="cls-3" d="M21.09,22.85c1.32,3.6,1.97,7.2,2.47,10.8.46,3.6.68,7.2.68,10.8,0,3.6-.21,7.2-.67,10.8-.5,3.6-1.16,7.2-2.48,10.8-1.32-3.6-1.98-7.2-2.48-10.8-.46-3.6-.68-7.2-.67-10.8,0-3.6.22-7.2.68-10.8.5-3.6,1.16-7.2,2.48-10.8Z"/>
              <path class="cls-3" d="M30.05,29.13c1.32,2.55,1.97,5.11,2.47,7.66.46,2.55.68,5.11.68,7.66,0,2.55-.21,5.11-.67,7.66-.5,2.55-1.16,5.11-2.48,7.66-1.32-2.55-1.98-5.11-2.48-7.66-.46-2.55-.68-5.11-.67-7.66,0-2.55.22-5.11.68-7.66.5-2.55,1.16-5.11,2.48-7.66Z"/>
              <path class="cls-3" d="M39,36.75c1.32,1.28,1.97,2.57,2.48,3.85.46,1.28.68,2.57.68,3.85,0,1.28-.21,2.57-.67,3.85-.5,1.28-1.16,2.57-2.48,3.85-1.32-1.28-1.98-2.57-2.48-3.85-.46-1.28-.68-2.57-.67-3.85,0-1.28.22-2.57.68-3.85.5-1.28,1.16-2.57,2.47-3.85Z"/>
              <path class="cls-3" d="M47.96,33.13c1.32,1.89,1.97,3.77,2.47,5.66.46,1.89.68,3.77.68,5.66,0,1.89-.21,3.77-.67,5.66-.5,1.89-1.16,3.77-2.48,5.66-1.32-1.89-1.98-3.77-2.48-5.66-.46-1.89-.68-3.77-.67-5.66,0-1.89.22-3.77.68-5.66.5-1.89,1.16-3.77,2.47-5.66Z"/>
              <path class="cls-3" d="M56.92,27.8c1.32,2.78,1.97,5.55,2.47,8.33.46,2.78.68,5.55.68,8.33,0,2.78-.21,5.55-.67,8.33-.5,2.78-1.16,5.55-2.48,8.33-1.32-2.78-1.98-5.55-2.48-8.33-.46-2.78-.68-5.55-.67-8.33,0-2.78.22-5.55.68-8.33.5-2.78,1.16-5.55,2.47-8.33Z"/>
              <path class="cls-3" d="M65.87,17.58c1.31,4.48,1.99,8.96,2.46,13.44.5,4.48.69,8.96.7,13.44,0,4.48-.19,8.96-.69,13.44-.46,4.48-1.15,8.96-2.46,13.44-1.31-4.48-2-8.96-2.46-13.44-.5-4.48-.69-8.96-.69-13.44.01-4.48.2-8.96.7-13.44.46-4.48,1.15-8.96,2.46-13.44Z"/>
              <path class="cls-3" d="M74.83,9.91c1.31,5.76,1.99,11.52,2.45,17.27.5,5.76.69,11.51.7,17.27,0,5.76-.19,11.51-.69,17.27-.46,5.76-1.15,11.52-2.46,17.27-1.32-5.76-2-11.51-2.46-17.27-.5-5.76-.69-11.51-.69-17.27.01-5.76.2-11.52.7-17.27.46-5.76,1.15-11.52,2.46-17.27Z"/>
              <path class="cls-3" d="M83.78,20.25c1.31,4.03,1.99,8.07,2.46,12.1.5,4.03.69,8.07.7,12.1,0,4.03-.19,8.07-.69,12.1-.46,4.03-1.15,8.07-2.46,12.1-1.31-4.03-2-8.07-2.46-12.1-.5-4.03-.69-8.07-.69-12.1.01-4.03.2-8.07.7-12.1.46-4.03,1.15-8.07,2.45-12.1Z"/>
              <path class="cls-3" d="M92.74,28.78c1.32,2.61,1.97,5.22,2.48,7.84.46,2.61.68,5.22.68,7.84,0,2.61-.21,5.22-.67,7.84-.5,2.61-1.16,5.22-2.48,7.84-1.32-2.61-1.98-5.22-2.48-7.84-.46-2.61-.68-5.22-.67-7.84,0-2.61.22-5.22.68-7.84.5-2.61,1.16-5.22,2.47-7.84Z"/>
              <path class="cls-3" d="M101.69,35.71c1.32,1.46,1.97,2.92,2.47,4.37.46,1.46.68,2.92.68,4.37,0,1.46-.21,2.91-.67,4.37-.5,1.46-1.16,2.92-2.48,4.37-1.32-1.46-1.98-2.92-2.48-4.37-.46-1.46-.68-2.92-.67-4.37,0-1.46.22-2.92.68-4.37.5-1.46,1.16-2.92,2.47-4.37Z"/>
            </g>
            <g>
              <path class="cls-3" d="M21.54,42.43h4.4v26.73h-4.4c-2.61,0-4.72-2.12-4.72-4.72v-17.28c0-2.61,2.12-4.72,4.72-4.72Z"/>
              <path class="cls-2" d="M21.54,69.15h4.4v-3.07h-8.81c.67,1.79,2.39,3.07,4.41,3.07Z"/>
              <g>
                <path class="cls-3" d="M60.99,98.88c0-7.19,5.83-13.02,13.02-13.02s13.02,5.83,13.02,13.02-5.83,13.02-13.02,13.02-13.02-5.83-13.02-13.02Z"/>
                <circle class="cls-3" cx="38.48" cy="98.88" r="13.02" transform="translate(-15.28 7.4) rotate(-9.18)"/>
                <path class="cls-2" d="M25.61,96.96c.49,3.28,2.19,6.15,4.64,8.16,1.33,1.09,3.34.68,4.26-.78.96-1.52,2.15-3.46,3.31-5.45,2.54-4.36,6.04-7.64,6.04-7.64l-8.18,16.5c.9.2,1.83.31,2.79.31,6.53,0,11.93-4.82,12.86-11.09.09.63.16,1.27.16,1.93,0,7.19-5.83,13.02-13.02,13.02s-13.02-5.83-13.02-13.02c0-.66.06-1.3.16-1.93Z"/>
                <path class="cls-2" d="M86.84,96.96c-.49,3.28-2.19,6.15-4.63,8.16-1.33,1.09-3.33.68-4.25-.78-.95-1.52-2.14-3.46-3.3-5.45-2.54-4.36-6.03-7.64-6.03-7.64l8.16,16.5c-.9.2-1.83.31-2.79.31-6.52,0-11.89-4.82-12.82-11.09-.09.63-.16,1.27-.16,1.93,0,7.19,5.81,13.02,12.98,13.02s12.98-5.83,12.98-13.02c0-.66-.06-1.3-.16-1.93Z"/>
                <path class="cls-9" d="M26.98,144.6c0,16.26,13.18,29.43,29.43,29.43s29.43-13.18,29.43-29.43-13.18-62.29-29.43-62.29-29.43,46.04-29.43,62.29Z"/>
                <path class="cls-3" d="M56.41,91c-3.81,0-7.44-.75-10.78-2.07,3.34-4.08,6.98-6.63,10.78-6.63s7.44,2.55,10.78,6.63c-3.34,1.32-6.97,2.07-10.78,2.07Z"/>
                <path class="cls-4" d="M56.41,98.88c-4.21,0-8.29-.33-12.23-.91-.83-.12-1.28-1.07-.85-1.8.84-1.4,1.72-2.72,2.62-3.9.29-.38.79-.53,1.25-.41,2.94.78,6.02,1.22,9.21,1.22s6.27-.43,9.21-1.22c.47-.12.96.02,1.25.41.9,1.18,1.77,2.5,2.62,3.9.43.72-.01,1.67-.85,1.8-3.93.58-8.02.91-12.23.91Z"/>
                <path class="cls-5" d="M28.44,92.06c2.64-2.85,6.41-4.64,10.6-4.64,1.13,0,2.22.14,3.27.38.49.12.73.68.47,1.11l-1.8,3.02c-.14.24-.41.38-.69.36-.41-.03-.83-.05-1.26-.05-3.38,0-6.56.6-9.35,1.67-1.13.43-2.08-.97-1.25-1.86Z"/>
                <path class="cls-5" d="M83.82,92.06c-2.64-2.85-6.41-4.64-10.6-4.64-1.13,0-2.22.14-3.27.38-.49.12-.73.68-.47,1.11l1.8,3.02c.14.24.41.38.69.36.42-.03.83-.05,1.26-.05,3.38,0,6.56.6,9.35,1.67,1.13.43,2.08-.97,1.25-1.86Z"/>
                <path class="cls-3" d="M56.16,158.52c-2.91,0-5.29-2.38-5.29-5.29v-45.97c0-2.91,2.38-5.29,5.29-5.29s5.29,2.38,5.29,5.29v45.97c0,2.91-2.38,5.29-5.29,5.29Z"/>
                <path class="cls-6" d="M56.16,155.47c-1.3,0-2.36-1.06-2.36-2.36v-45.18c0-1.3,1.06-2.36,2.36-2.36s2.36,1.06,2.36,2.36v45.18c0,1.3-1.06,2.36-2.36,2.36Z"/>
              </g>
              <rect class="cls-1" x="92.51" y="34.63" width="1.79" height="18.18"/>
              <g>
                <path class="cls-9" d="M89.57,31.3c0-2.12,1.72-3.84,3.83-3.84s3.83,1.72,3.83,3.84-1.72,3.84-3.83,3.84-3.83-1.72-3.83-3.84Z"/>
                <path class="cls-2" d="M93.41,34c-1.92,0-3.51-1.42-3.79-3.27-.03.19-.05.37-.05.57,0,2.12,1.72,3.84,3.83,3.84s3.83-1.72,3.83-3.84c0-.19-.02-.38-.05-.57-.27,1.85-1.86,3.27-3.79,3.27Z"/>
                <path class="cls-5" d="M93.41,29.35c.81,0,1.57.14,2.24.4.27.1.5-.24.3-.45-.63-.68-1.53-1.11-2.53-1.11s-1.9.43-2.53,1.11c-.2.21.03.55.3.45.67-.25,1.43-.4,2.24-.4Z"/>
              </g>
              <rect class="cls-3" x="48.11" y="79.51" width="16.24" height="6.87"/>
              <rect class="cls-9" x="22.73" y="32.9" width="66.77" height="46.74" rx="15.61" ry="15.61"/>
              <path class="cls-2" d="M79,75.93h-45.78c-2.19,0-4.27-.43-6.2-1.19,2.85,3.01,6.87,4.91,11.32,4.91h35.55c4.45,0,8.47-1.9,11.32-4.91-1.93.76-4.01,1.19-6.2,1.19Z"/>
              <rect class="cls-3" x="37.89" y="28.81" width="36.27" height="54.92" rx="10.91" ry="10.91" transform="translate(112.29 .25) rotate(90)"/>
              <path class="cls-5" d="M39.14,44.45h33.95c3.38,0,6.4,1.45,8.43,3.73-.96-4.59-5.22-8.05-10.34-8.05h-30.13c-5.11,0-9.37,3.46-10.34,8.05,2.02-2.28,5.04-3.73,8.43-3.73Z"/>
              <path class="cls-2" d="M73.4,68.86h-34.58c-3.44,0-6.52-1.45-8.58-3.73.98,4.59,5.32,8.05,10.53,8.05h30.69c5.21,0,9.54-3.46,10.53-8.05-2.06,2.28-5.14,3.73-8.58,3.73Z"/>
              <g>
                <path class="cls-6" d="M72.25,60.2c-.22,0-.44.04-.66.13-10.8,4.26-20.01,4.26-30.8,0-.91-.36-1.96.09-2.33,1.01-.36.92.09,1.97,1.01,2.33,11.56,4.56,21.87,4.56,33.44,0,.92-.36,1.38-1.41,1.01-2.33-.28-.71-.96-1.14-1.67-1.14Z"/>
                <g>
                  <g>
                    <path class="cls-6" d="M48.98,55.35c-.39,0-.78-.15-1.07-.44l-6.49-6.49c-.59-.59-.59-1.55,0-2.14.59-.59,1.55-.59,2.14,0l6.49,6.49c.59.59.59,1.55,0,2.14-.3.3-.68.44-1.07.44Z"/>
                    <path class="cls-6" d="M42.49,55.35c-.39,0-.78-.15-1.07-.44-.59-.59-.59-1.55,0-2.14l6.49-6.49c.59-.59,1.55-.59,2.14,0,.59.59.59,1.55,0,2.14l-6.49,6.49c-.3.3-.68.44-1.07.44Z"/>
                  </g>
                  <g>
                    <path class="cls-6" d="M69.89,55.35c-.39,0-.78-.15-1.07-.44l-6.49-6.49c-.59-.59-.59-1.55,0-2.14.59-.59,1.55-.59,2.14,0l6.49,6.49c.59.59.59,1.55,0,2.14-.3.3-.68.44-1.07.44Z"/>
                    <path class="cls-6" d="M63.4,55.35c-.39,0-.78-.15-1.07-.44-.59-.59-.59-1.55,0-2.14l6.49-6.49c.59-.59,1.55-.59,2.14,0,.59.59.59,1.55,0,2.14l-6.49,6.49c-.3.3-.68.44-1.07.44Z"/>
                  </g>
                </g>
              </g>
              <rect class="cls-2" x="48.11" y="79.51" width="16.24" height="3.43"/>
              <path class="cls-3" d="M89.92,65.13h-.49v-16.62h.49c4.59,0,8.31,3.72,8.31,8.31s-3.72,8.31-8.31,8.31Z"/>
              <path class="cls-5" d="M90.9,53.18v-2.89c0-.43.41-.78.83-.65,2.31.69,4.16,2.45,4.99,4.7.2.54-.36,1.08-.89.85-1.29-.56-2.77-1.02-4.4-1.36-.31-.06-.53-.33-.53-.65Z"/>
              <path class="cls-2" d="M92.9,62.33c-.92.24-1.83-.37-1.96-1.31l-1.51-10.82v14.93h.49c3.3,0,6.13-1.94,7.47-4.73-.9.87-2.98,1.54-4.49,1.93Z"/>
              <path class="cls-5" d="M21.75,43.35c-2.31.26-3.85,2.44-3.85,5v4.37c0,.41.32.75.71.75.69,0,1.74,0,2.43,0,.39,0,.71-.34.71-.76v-6.37c0-.82.4-1.95.64-2.56.08-.2-.06-.43-.27-.43-.15,0-.3,0-.38.01Z"/>
            </g>
          </g>
        </g>
      </g>
    </g>
  </g>
</svg>