<?xml version="1.0" encoding="UTF-8"?>
<svg xmlns="http://www.w3.org/2000/svg" xmlns:xlink="http://www.w3.org/1999/xlink" viewBox="0 0 111.13 111.13">
  <defs>
    <style>
      .cls-1 {
        fill: #3a3687;
      }

      .cls-2 {
        fill: #c5c3e6;
        mix-blend-mode: multiply;
      }

      .cls-3 {
        fill: #474ca8;
      }

      .cls-4 {
        fill: #235ecc;
      }

      .cls-4, .cls-5 {
        mix-blend-mode: screen;
      }

      .cls-5 {
        fill: #272da1;
      }

      .cls-6 {
        fill: #42f9ff;
      }

      .cls-7 {
        isolation: isolate;
      }

      .cls-8 {
        fill: #e4edff;
      }

      .cls-9 {
        fill: #70a2ff;
      }

      .cls-10 {
        opacity: .37;
      }

      .cls-11 {
        clip-path: url(#clippath);
      }
    </style>
    <clipPath id="clippath">
      <circle class="cls-8" cx="55.56" cy="55.56" r="55.56" transform="translate(-23.02 55.56) rotate(-45)"/>
    </clipPath>
  </defs>
  <g class="cls-7">
    <g id="Layer_2" data-name="Layer 2">
      <g id="_ò__1" data-name="ò‡_1">
        <g>
          <circle class="cls-8" cx="55.56" cy="55.56" r="55.56" transform="translate(-23.02 55.56) rotate(-45)"/>
          <g class="cls-11">
            <g class="cls-10">
              <rect class="cls-3" x="24.29" y="26.82" width="5.96" height="36.73"/>
              <rect class="cls-3" x="32.88" y="35.07" width="5.96" height="28.49"/>
              <rect class="cls-3" x="41.47" y="47.88" width="5.96" height="15.67"/>
              <rect class="cls-3" x="15.69" y="35.07" width="5.96" height="28.49"/>
              <rect class="cls-3" x="50.06" y="40.5" width="5.96" height="23.05"/>
              <rect class="cls-3" x="7.1" y="45.11" width="5.96" height="18.44"/>
              <rect class="cls-3" x="58.66" y="29.66" width="5.96" height="33.9"/>
              <rect class="cls-3" x="67.25" y="16.45" width="5.96" height="47.1"/>
              <rect class="cls-3" x="75.84" y="8.15" width="5.96" height="55.4"/>
              <rect class="cls-3" x="84.43" y="22.39" width="5.96" height="41.17"/>
              <rect class="cls-3" x="93.02" y="31.65" width="5.96" height="31.9"/>
              <rect class="cls-3" x="101.62" y="46.2" width="5.96" height="17.36"/>
              <rect class="cls-3" x="110.21" y="54.99" width="5.96" height="8.56"/>
              <rect class="cls-3" x="-1.49" y="54.99" width="5.96" height="8.56" transform="translate(2.98 118.54) rotate(180)"/>
            </g>
            <g>
              <rect class="cls-1" x="55.55" y="12.59" width="1.8" height="18.18"/>
              <g>
                <circle class="cls-9" cx="56.45" cy="9.25" r="3.84"/>
                <path class="cls-2" d="M56.45,11.96c-1.92,0-3.51-1.42-3.79-3.27-.03.19-.05.37-.05.57,0,2.12,1.72,3.83,3.84,3.83s3.84-1.72,3.84-3.83c0-.19-.02-.38-.05-.57-.27,1.85-1.86,3.27-3.79,3.27Z"/>
                <path class="cls-4" d="M56.45,7.31c.81,0,1.57.14,2.24.4.27.1.5-.24.3-.45-.63-.68-1.53-1.11-2.53-1.11s-1.9.43-2.53,1.11c-.2.21.03.55.3.45.67-.25,1.43-.4,2.24-.4Z"/>
              </g>
              <rect class="cls-3" x="45.11" y="78.8" width="22.68" height="7.57"/>
              <rect class="cls-9" x="22.95" y="32.19" width="66.77" height="46.74" rx="15.61" ry="15.61"/>
              <path class="cls-9" d="M30.38,148.33l-6.92-37.63c-2.52-13.69,3.69-26.55,14.16-26.55h37.66c10.47,0,16.68,12.86,14.16,26.55l-6.92,37.63c-1.38,7.52-7.76,13.11-14.31,13.11h-23.53c-6.54,0-12.92-5.59-14.31-13.11Z"/>
              <path class="cls-3" d="M30.32,148.04l-6.67-36.3,3.21-.53c3.63-.6,7.09,1.87,7.69,5.5l3.86,23.21c.6,3.63-1.87,7.09-5.5,7.69l-2.59.43Z"/>
              <path class="cls-4" d="M42.03,88.28l1.81,3.16c.32.56.92.91,1.57.91h22.07c.65,0,1.25-.35,1.57-.91l1.81-3.16c.69-1.21-.18-2.72-1.57-2.72h-25.69c-1.39,0-2.27,1.51-1.57,2.72Z"/>
              <path class="cls-2" d="M79.22,75.22h-45.78c-2.19,0-4.27-.43-6.2-1.19,2.85,3.01,6.87,4.91,11.32,4.91h35.55c4.45,0,8.47-1.9,11.32-4.91-1.93.76-4.01,1.19-6.2,1.19Z"/>
              <rect class="cls-3" x="38.2" y="28.1" width="36.27" height="54.92" rx="10.91" ry="10.91" transform="translate(111.9 -.77) rotate(90)"/>
              <path class="cls-5" d="M39.36,43.74h33.95c3.38,0,6.4,1.45,8.43,3.73-.97-4.59-5.22-8.05-10.34-8.05h-30.13c-5.11,0-9.37,3.46-10.34,8.05,2.02-2.28,5.04-3.73,8.43-3.73Z"/>
              <path class="cls-2" d="M73.62,68.15h-34.58c-3.44,0-6.52-1.45-8.58-3.73.98,4.59,5.32,8.05,10.53,8.05h30.69c5.21,0,9.54-3.46,10.53-8.05-2.06,2.28-5.14,3.73-8.58,3.73Z"/>
              <rect class="cls-2" x="45.11" y="78.8" width="22.68" height="3.43"/>
              <path class="cls-3" d="M90.14,64.42h-.49v-16.62h.49c4.59,0,8.31,3.72,8.31,8.31s-3.72,8.31-8.31,8.31Z"/>
              <path class="cls-5" d="M91.12,52.47v-2.89c0-.43.41-.78.83-.65,2.31.69,4.16,2.45,4.99,4.7.2.54-.36,1.08-.89.85-1.29-.56-2.77-1.02-4.4-1.36-.31-.06-.54-.33-.54-.65Z"/>
              <path class="cls-2" d="M93.13,61.62c-.92.24-1.83-.37-1.96-1.31l-1.51-10.82v14.93h.49c3.3,0,6.13-1.94,7.47-4.73-.9.87-2.98,1.54-4.49,1.93Z"/>
              <path class="cls-3" d="M76.9,84.28c-2.51,2.74-4.06,6.36-4.06,10.35,0,8.44,6.91,15.35,15.35,15.35.46,0,.92-.03,1.37-.07,2.02-12.66-3.37-24.4-12.66-25.63Z"/>
              <path class="cls-3" d="M35.98,84.28c2.51,2.74,4.06,6.36,4.06,10.35,0,8.44-6.91,15.35-15.35,15.35-.46,0-.92-.03-1.37-.07-2.02-12.66,3.37-24.4,12.66-25.63Z"/>
              <path class="cls-3" d="M22.46,64.42h.49v-16.62h-.49c-4.59,0-8.31,3.72-8.31,8.31s3.72,8.31,8.31,8.31Z"/>
              <path class="cls-5" d="M21.48,52.47v-2.89c0-.43-.41-.78-.83-.65-2.31.69-4.16,2.45-4.99,4.7-.2.54.36,1.08.89.85,1.29-.56,2.77-1.02,4.4-1.36.31-.06.54-.33.54-.65Z"/>
              <path class="cls-2" d="M19.48,61.62c.92.24,1.83-.37,1.96-1.31l1.51-10.82v14.93h-.49c-3.3,0-6.13-1.94-7.47-4.73.9.87,2.98,1.54,4.49,1.93Z"/>
              <rect class="cls-3" x="40.27" y="28.49" width="32.12" height="7.41" rx="2.88" ry="2.88"/>
              <circle class="cls-9" cx="24.91" cy="94.85" r="13.79"/>
              <path class="cls-2" d="M24.91,104.56c-6.92,0-12.63-5.1-13.62-11.75-.1.67-.17,1.34-.17,2.04,0,7.61,6.17,13.79,13.79,13.79s13.79-6.17,13.79-13.79c0-.69-.07-1.37-.17-2.04-.99,6.65-6.7,11.75-13.62,11.75Z"/>
              <path class="cls-4" d="M24.97,87.86c2.91,0,5.64.52,8.04,1.43.98.37,1.78-.85,1.07-1.61-2.27-2.45-5.51-3.98-9.11-3.98s-6.84,1.53-9.11,3.98c-.71.77.09,1.99,1.07,1.61,2.4-.91,5.14-1.43,8.04-1.43Z"/>
              <g>
                <circle class="cls-9" cx="88.19" cy="94.63" r="13.79"/>
                <path class="cls-2" d="M88.19,104.34c-6.92,0-12.63-5.1-13.62-11.75-.1.67-.17,1.34-.17,2.04,0,7.61,6.17,13.79,13.79,13.79s13.79-6.17,13.79-13.79c0-.69-.07-1.37-.17-2.04-.99,6.65-6.7,11.75-13.62,11.75Z"/>
                <path class="cls-4" d="M88.19,87.64c2.91,0,5.64.52,8.04,1.43.98.37,1.78-.85,1.07-1.61-2.27-2.45-5.51-3.98-9.11-3.98s-6.84,1.53-9.11,3.98c-.71.77.09,1.99,1.07,1.61,2.4-.91,5.14-1.43,8.04-1.43Z"/>
              </g>
              <path class="cls-6" d="M42.64,63.49c-.67,0-1.32-.38-1.62-1.03-.42-.9-.04-1.97.86-2.39l3.43-1.62c.49-.23,1.05-.23,1.54,0l2.67,1.26,2.67-1.26c.49-.23,1.05-.23,1.54,0l2.67,1.26,2.67-1.26c.49-.23,1.05-.23,1.54,0l2.67,1.26,2.67-1.26c.49-.23,1.05-.23,1.54,0l3.43,1.62c.9.42,1.28,1.49.86,2.39-.42.9-1.5,1.28-2.39.86l-2.67-1.26-2.67,1.26c-.49.23-1.05.23-1.54,0l-2.67-1.26-2.67,1.26c-.49.23-1.05.23-1.54,0l-2.67-1.26-2.67,1.26c-.49.23-1.05.23-1.54,0l-2.67-1.26-2.67,1.26c-.25.12-.51.17-.77.17Z"/>
              <g>
                <path class="cls-6" d="M38.05,50.34l10.53,2.16c1.18.24,2.33-.52,2.57-1.7.24-1.18-.52-2.33-1.7-2.57l-10.53-2.16c-1.18-.24-2.33.52-2.57,1.7-.24,1.18.52,2.33,1.7,2.57Z"/>
                <path class="cls-6" d="M63.29,48.22l10.53-2.16c1.18-.24,2.33.52,2.57,1.7.24,1.18-.52,2.33-1.7,2.57l-10.53,2.16c-1.18.24-2.33-.52-2.57-1.7-.24-1.18.52-2.33,1.7-2.57Z"/>
              </g>
              <circle class="cls-3" cx="56.57" cy="106.75" r="13.17"/>
              <circle class="cls-6" cx="56.57" cy="106.75" r="11.37"/>
            </g>
          </g>
        </g>
      </g>
    </g>
  </g>
</svg>