<?xml version="1.0" encoding="UTF-8"?>
<svg xmlns="http://www.w3.org/2000/svg" xmlns:xlink="http://www.w3.org/1999/xlink" viewBox="0 0 111.13 111.13">
  <defs>
    <style>
      .cls-1 {
        fill: #c5c3e6;
      }

      .cls-1, .cls-2 {
        mix-blend-mode: multiply;
      }

      .cls-3 {
        fill: #474ca8;
      }

      .cls-4 {
        fill: #235ecc;
      }

      .cls-4, .cls-5 {
        mix-blend-mode: screen;
      }

      .cls-5 {
        fill: #272da1;
      }

      .cls-6 {
        fill: #bab8d9;
      }

      .cls-7 {
        fill: #42f9ff;
      }

      .cls-8 {
        isolation: isolate;
      }

      .cls-9 {
        fill: #e4edff;
      }

      .cls-10 {
        fill: #70a2ff;
      }

      .cls-11 {
        opacity: .37;
      }

      .cls-12 {
        clip-path: url(#clippath);
      }
    </style>
    <clipPath id="clippath">
      <circle class="cls-9" cx="55.56" cy="55.56" r="55.56"/>
    </clipPath>
  </defs>
  <g class="cls-8">
    <g id="Layer_2" data-name="Layer 2">
      <g id="_ò__1" data-name="ò‡_1">
        <g>
          <circle class="cls-9" cx="55.56" cy="55.56" r="55.56"/>
          <g class="cls-12">
            <g class="cls-11">
              <rect class="cls-3" x="2.88" y="46.41" width="15.13" height="7.67"/>
              <rect class="cls-3" x="25.35" y="46.41" width="15.13" height="7.67"/>
              <rect class="cls-3" x="47.82" y="46.41" width="15.13" height="7.67"/>
              <rect class="cls-3" x="70.28" y="46.41" width="15.13" height="7.67"/>
              <rect class="cls-3" x="25.35" y="35.76" width="15.13" height="7.67"/>
              <rect class="cls-3" x="70.28" y="35.76" width="15.13" height="7.67"/>
              <rect class="cls-3" x="25.35" y="25.12" width="15.13" height="7.67"/>
              <rect class="cls-3" x="70.28" y="25.12" width="15.13" height="7.67"/>
              <rect class="cls-3" x="25.35" y="14.48" width="15.13" height="7.67"/>
              <rect class="cls-3" x="92.75" y="46.41" width="15.13" height="7.67"/>
              <rect class="cls-3" x="2.88" y="35.76" width="15.13" height="7.67"/>
              <rect class="cls-3" x="92.75" y="46.41" width="15.13" height="7.67"/>
              <rect class="cls-3" x="70.28" y="46.41" width="15.13" height="7.67"/>
              <rect class="cls-3" x="47.82" y="46.41" width="15.13" height="7.67"/>
              <rect class="cls-3" x="25.35" y="46.41" width="15.13" height="7.67"/>
              <rect class="cls-3" x="70.28" y="57.05" width="15.13" height="7.67"/>
              <rect class="cls-3" x="25.35" y="57.05" width="15.13" height="7.67"/>
              <rect class="cls-3" x="70.28" y="67.7" width="15.13" height="7.67"/>
              <rect class="cls-3" x="25.35" y="67.7" width="15.13" height="7.67"/>
              <rect class="cls-3" x="70.28" y="78.34" width="15.13" height="7.67"/>
              <rect class="cls-3" x="2.88" y="46.41" width="15.13" height="7.67"/>
              <rect class="cls-3" x="92.75" y="57.05" width="15.13" height="7.67"/>
              <rect class="cls-3" x="92.75" y="57.05" width="15.13" height="7.67"/>
              <rect class="cls-3" x="70.28" y="57.05" width="15.13" height="7.67"/>
              <rect class="cls-3" x="47.82" y="57.05" width="15.13" height="7.67"/>
              <rect class="cls-3" x="25.35" y="57.05" width="15.13" height="7.67"/>
              <rect class="cls-3" x="70.28" y="67.7" width="15.13" height="7.67"/>
              <rect class="cls-3" x="25.35" y="67.7" width="15.13" height="7.67"/>
              <rect class="cls-3" x="70.28" y="78.34" width="15.13" height="7.67"/>
              <rect class="cls-3" x="25.35" y="78.34" width="15.13" height="7.67"/>
              <rect class="cls-3" x="70.28" y="88.98" width="15.13" height="7.67"/>
              <rect class="cls-3" x="2.88" y="57.05" width="15.13" height="7.67"/>
              <rect class="cls-3" x="92.75" y="67.7" width="15.13" height="7.67"/>
            </g>
            <g>
              <g>
                <path class="cls-10" d="M30.39,149.76l-6.92-37.63c-2.52-13.69,3.69-26.55,14.16-26.55h37.66c10.47,0,16.68,12.86,14.16,26.55l-6.92,37.63c-1.38,7.52-7.76,13.11-14.31,13.11h-23.53c-6.54,0-12.92-5.59-14.31-13.11Z"/>
                <rect class="cls-3" x="45.23" y="78.71" width="22.68" height="6.87"/>
                <rect class="cls-10" x="23.07" y="32.1" width="66.77" height="46.74" rx="15.61" ry="15.61"/>
                <path class="cls-1" d="M79.34,75.13h-45.78c-2.19,0-4.28-.43-6.2-1.19,2.85,3.01,6.87,4.91,11.32,4.91h35.55c4.45,0,8.47-1.9,11.32-4.91-1.93.76-4.01,1.19-6.2,1.19Z"/>
                <rect class="cls-3" x="38.32" y="28.01" width="36.27" height="54.92" rx="10.91" ry="10.91" transform="translate(111.93 -.98) rotate(90)"/>
                <path class="cls-5" d="M39.48,43.65h33.95c3.38,0,6.4,1.45,8.43,3.73-.97-4.59-5.22-8.05-10.34-8.05h-30.13c-5.11,0-9.37,3.46-10.34,8.05,2.02-2.28,5.04-3.73,8.43-3.73Z"/>
                <path class="cls-7" d="M40.39,57.17s.13.07.38.2c.24.14.61.33,1.04.55.42.23.98.46,1.59.73.61.26,1.29.54,2.05.79,2.99,1.06,6.98,1.81,11.01,1.79.41-.02,1.15,0,1.55-.04.46-.03.95-.04,1.45-.09.98-.09,1.96-.2,2.89-.37.94-.15,1.84-.36,2.7-.57.85-.23,1.67-.46,2.41-.73.75-.25,1.43-.53,2.05-.79.6-.27,1.16-.5,1.59-.74.44-.23.8-.41,1.04-.54.25-.13.38-.2.38-.2,0,0-.06.14-.16.4-.12.25-.27.65-.55,1.08-.52.91-1.43,2.15-2.82,3.35-1.38,1.2-3.25,2.36-5.43,3.14-1.08.4-2.24.72-3.44.92-.59.1-1.21.2-1.86.24-.71.07-1.09.06-1.8.09-1.23-.04-2.47-.09-3.66-.33-1.2-.2-2.36-.51-3.44-.92-2.18-.78-4.04-1.94-5.42-3.14-1.4-1.2-2.3-2.43-2.83-3.35-.29-.45-.43-.83-.54-1.08-.11-.26-.16-.4-.16-.4Z"/>
                <path class="cls-7" d="M72.51,51.76c-4.42-2.15-8.25-1.91-12.47,0,1.68-6.18,10.57-6.37,12.47,0Z"/>
                <path class="cls-1" d="M73.74,68.06h-34.58c-3.44,0-6.52-1.45-8.58-3.73.98,4.59,5.32,8.05,10.53,8.05h30.69c5.21,0,9.54-3.46,10.53-8.05-2.06,2.28-5.14,3.73-8.58,3.73Z"/>
                <circle class="cls-7" cx="44.23" cy="49.78" r="3.84"/>
                <rect class="cls-1" x="45.23" y="78.71" width="22.68" height="3.43"/>
                <path class="cls-3" d="M90.26,64.33h-.49v-16.62h.49c4.59,0,8.31,3.72,8.31,8.31s-3.72,8.31-8.31,8.31Z"/>
                <path class="cls-5" d="M91.24,52.38v-2.89c0-.43.41-.78.83-.65,2.31.69,4.16,2.45,4.99,4.7.2.54-.36,1.08-.89.85-1.29-.56-2.77-1.02-4.4-1.36-.31-.06-.54-.33-.54-.65Z"/>
                <path class="cls-1" d="M93.24,61.53c-.92.24-1.83-.37-1.96-1.31l-1.51-10.82v14.93h.49c3.3,0,6.13-1.94,7.47-4.73-.9.87-2.98,1.54-4.49,1.93Z"/>
                <path class="cls-3" d="M22.58,64.33h.49v-16.62h-.49c-4.59,0-8.31,3.72-8.31,8.31s3.72,8.31,8.31,8.31Z"/>
                <path class="cls-5" d="M21.6,52.38v-2.89c0-.43-.41-.78-.83-.65-2.31.69-4.16,2.45-4.99,4.7-.2.54.36,1.08.89.85,1.29-.56,2.77-1.02,4.4-1.36.31-.06.53-.33.53-.65Z"/>
                <path class="cls-1" d="M19.6,61.53c.92.24,1.83-.37,1.96-1.31l1.51-10.82v14.93h-.49c-3.3,0-6.13-1.94-7.47-4.73.9.87,2.98,1.54,4.49,1.93Z"/>
                <g class="cls-2">
                  <rect class="cls-6" x="38.36" y="84.27" width="1.05" height="16.08" transform="translate(-51.34 48.81) rotate(-41.42)"/>
                </g>
                <g class="cls-2">
                  <rect class="cls-6" x="65.98" y="91.78" width="16.08" height="1.05" transform="translate(-44.17 86.74) rotate(-48.57)"/>
                </g>
                <g>
                  <path class="cls-3" d="M50.49,96.05h11.93c6.01,0,10.6,5.38,9.65,11.31l-2.44,15.3c-.76,4.74-4.85,8.23-9.65,8.23h-7.05c-4.8,0-8.89-3.49-9.65-8.23l-2.44-15.3c-.95-5.94,3.64-11.31,9.65-11.31Z"/>
                  <path class="cls-7" d="M52.93,128.1c-3.45,0-6.36-2.48-6.9-5.89l-2.44-15.3c-.32-2.02.25-4.08,1.58-5.63,1.33-1.56,3.27-2.45,5.32-2.45h11.93c2.05,0,3.99.89,5.32,2.45,1.33,1.56,1.91,3.61,1.59,5.64l-2.44,15.3c-.55,3.41-3.45,5.89-6.9,5.89h-7.05Z"/>
                </g>
                <path class="cls-4" d="M42.48,89.71l1.81,3.16c.32.56.92.91,1.57.91h22.07c.65,0,1.25-.35,1.57-.91l1.81-3.16c.69-1.21-.18-2.72-1.57-2.72h-25.69c-1.39,0-2.27,1.51-1.57,2.72Z"/>
              </g>
              <g>
                <g>
                  <path class="cls-3" d="M39.63,95.69c0-7.48-6.06-13.54-13.54-13.54s-13.54,6.06-13.54,13.54,6.06,13.54,13.54,13.54,13.54-6.06,13.54-13.54Z"/>
                  <path class="cls-1" d="M26.09,105.22c-6.8,0-12.41-5.01-13.38-11.54-.1.66-.16,1.32-.16,2,0,7.48,6.06,13.54,13.54,13.54s13.54-6.06,13.54-13.54c0-.68-.07-1.35-.16-2-.97,6.53-6.58,11.54-13.38,11.54Z"/>
                  <path class="cls-5" d="M26.09,88.77c2.85,0,5.54.51,7.9,1.41.96.37,1.75-.83,1.05-1.58-2.23-2.4-5.41-3.91-8.95-3.91s-6.72,1.51-8.95,3.91c-.7.75.09,1.95,1.05,1.58,2.36-.9,5.04-1.41,7.9-1.41Z"/>
                </g>
                <g>
                  <path class="cls-3" d="M73.59,95.69c0-7.48,6.06-13.54,13.54-13.54s13.54,6.06,13.54,13.54-6.06,13.54-13.54,13.54-13.54-6.06-13.54-13.54Z"/>
                  <path class="cls-1" d="M87.13,105.22c-6.8,0-12.41-5.01-13.38-11.54-.1.66-.16,1.32-.16,2,0,7.48,6.06,13.54,13.54,13.54s13.54-6.06,13.54-13.54c0-.68-.07-1.35-.16-2-.97,6.53-6.58,11.54-13.38,11.54Z"/>
                  <path class="cls-5" d="M87.13,88.82c2.85,0,5.54.51,7.9,1.41.96.37,1.75-.83,1.05-1.58-2.23-2.4-5.41-3.91-8.95-3.91s-6.72,1.51-8.95,3.91c-.7.75.09,1.95,1.05,1.58,2.36-.9,5.04-1.41,7.9-1.41Z"/>
                </g>
              </g>
            </g>
          </g>
        </g>
      </g>
    </g>
  </g>
</svg>