<?xml version="1.0" encoding="UTF-8"?>
<svg xmlns="http://www.w3.org/2000/svg" xmlns:xlink="http://www.w3.org/1999/xlink" viewBox="0 0 111.13 111.13">
  <defs>
    <style>
      .cls-1 {
        fill: #3a3687;
      }

      .cls-2 {
        fill: #c5c3e6;
        mix-blend-mode: multiply;
      }

      .cls-3 {
        fill: #474ca8;
      }

      .cls-4 {
        fill: #235ecc;
      }

      .cls-4, .cls-5 {
        mix-blend-mode: screen;
      }

      .cls-5 {
        fill: #272da1;
      }

      .cls-6 {
        fill: #42f9ff;
      }

      .cls-7 {
        isolation: isolate;
      }

      .cls-8 {
        fill: #e4edff;
      }

      .cls-9 {
        fill: #70a2ff;
      }

      .cls-10 {
        opacity: .37;
      }

      .cls-11 {
        clip-path: url(#clippath);
      }
    </style>
    <clipPath id="clippath">
      <circle class="cls-8" cx="55.56" cy="55.56" r="55.56" transform="translate(-13.88 92.34) rotate(-72.9)"/>
    </clipPath>
  </defs>
  <g class="cls-7">
    <g id="Layer_2" data-name="Layer 2">
      <g id="_ò__1" data-name="ò‡_1">
        <g>
          <circle class="cls-8" cx="55.56" cy="55.56" r="55.56" transform="translate(-13.88 92.34) rotate(-72.9)"/>
          <g class="cls-11">
            <g class="cls-10">
              <rect class="cls-3" x="11.74" y="64.36" width="13.72" height="13.72"/>
              <rect class="cls-3" x="32.11" y="64.36" width="13.72" height="13.72"/>
              <rect class="cls-3" x="52.49" y="64.36" width="13.72" height="13.72"/>
              <rect class="cls-3" x="72.87" y="64.36" width="13.72" height="13.72"/>
              <rect class="cls-3" x="32.11" y="45.31" width="13.72" height="13.72"/>
              <rect class="cls-3" x="72.87" y="45.31" width="13.72" height="13.72"/>
              <rect class="cls-3" x="32.11" y="26.27" width="13.72" height="13.72"/>
              <rect class="cls-3" x="72.87" y="26.27" width="13.72" height="13.72"/>
              <rect class="cls-3" x="32.11" y="7.23" width="13.72" height="13.72"/>
              <rect class="cls-3" x="93.25" y="64.36" width="13.72" height="13.72"/>
              <rect class="cls-3" x="11.74" y="45.31" width="13.72" height="13.72"/>
            </g>
            <g>
              <rect class="cls-1" x="54.59" y="13.51" width="1.79" height="18.18"/>
              <g>
                <path class="cls-9" d="M51.65,10.17c0-2.12,1.72-3.84,3.84-3.84s3.83,1.72,3.83,3.84-1.72,3.84-3.83,3.84-3.84-1.72-3.84-3.84Z"/>
                <path class="cls-2" d="M55.49,12.87c-1.92,0-3.51-1.42-3.79-3.27-.03.19-.05.37-.05.57,0,2.12,1.72,3.84,3.83,3.84s3.84-1.72,3.84-3.84c0-.19-.02-.38-.05-.57-.27,1.85-1.86,3.27-3.79,3.27Z"/>
                <path class="cls-4" d="M55.49,8.23c.81,0,1.57.14,2.24.4.27.1.5-.24.3-.45-.63-.68-1.53-1.11-2.53-1.11s-1.9.43-2.53,1.11c-.2.21.03.55.3.45.67-.25,1.43-.4,2.24-.4Z"/>
              </g>
              <ellipse class="cls-3" cx="55.49" cy="141.79" rx="35.34" ry="55.53"/>
              <path class="cls-9" d="M65.27,88.43c-.46,3.58-.7,7.28-.7,11.07,0,25.34,10.8,46.69,25.56,53.36.46-3.58.7-7.28.7-11.07,0-25.34-10.8-46.69-25.56-53.36Z"/>
              <path class="cls-9" d="M45.71,88.43c.46,3.58.7,7.28.7,11.07,0,25.34-10.8,46.69-25.56,53.36-.46-3.58-.7-7.28-.7-11.07,0-25.34,10.8-46.69,25.56-53.36Z"/>
              <path class="cls-9" d="M49.7,175.53c0,2.63,2.54,4.87,5.73,4.87h.12c3.2,0,5.73-2.24,5.73-4.87v-84.4c0-2.63-2.54-4.87-5.73-4.87h-.12c-3.2,0-5.73,2.24-5.73,4.87v84.4Z"/>
              <path class="cls-6" d="M53.54,174.24c0,.92.89,1.7,2,1.7,1.16,0,2.04-.78,2.04-1.7v-71.88c0-.92-.89-1.7-2-1.7-1.16,0-2.04.78-2.04,1.7v71.88Z"/>
              <path class="cls-3" d="M41.81,90.58c4.16,1.95,8.78,3.07,13.68,3.07s9.52-1.12,13.68-3.07c-4.21-2.78-8.83-4.32-13.68-4.32s-9.47,1.54-13.68,4.32Z"/>
              <g>
                <rect class="cls-9" x="-3.1" y="94.17" width="8.69" height="46.1" transform="translate(-112.92 143.87) rotate(-102.53)"/>
                <g>
                  <circle class="cls-3" cx="27.52" cy="109.83" r="13.79"/>
                  <path class="cls-2" d="M27.52,119.54c6.92,0,12.63-5.1,13.62-11.75.1.67.17,1.34.17,2.04,0,7.61-6.17,13.79-13.79,13.79s-13.79-6.17-13.79-13.79c0-.69.07-1.37.17-2.04.99,6.64,6.7,11.75,13.62,11.75Z"/>
                  <path class="cls-5" d="M27.52,102.84c-2.91,0-5.64.52-8.04,1.43-.98.37-1.78-.85-1.07-1.61,2.27-2.45,5.51-3.98,9.11-3.98s6.84,1.53,9.11,3.98c.71.77-.09,1.99-1.07,1.61-2.4-.92-5.14-1.43-8.04-1.43Z"/>
                </g>
              </g>
              <g>
                <circle class="cls-3" cx="81.66" cy="109.83" r="13.79"/>
                <path class="cls-2" d="M81.66,119.54c-6.92,0-12.63-5.1-13.62-11.75-.1.67-.17,1.34-.17,2.04,0,7.61,6.17,13.79,13.79,13.79s13.79-6.17,13.79-13.79c0-.69-.07-1.37-.17-2.04-.99,6.64-6.7,11.75-13.62,11.75Z"/>
                <path class="cls-5" d="M81.66,102.84c2.91,0,5.64.52,8.04,1.43.98.37,1.78-.85,1.07-1.61-2.27-2.45-5.51-3.98-9.11-3.98s-6.84,1.53-9.11,3.98c-.71.77.09,1.99,1.07,1.61,2.4-.92,5.14-1.43,8.04-1.43Z"/>
              </g>
              <circle class="cls-9" cx="54.81" cy="61.34" r="29.43" transform="translate(-27.32 56.72) rotate(-45)"/>
              <path class="cls-2" d="M54.81,83.93c-15.1,0-27.52-11.37-29.22-26.01-.13,1.12-.21,2.26-.21,3.42,0,16.26,13.18,29.43,29.43,29.43s29.43-13.18,29.43-29.43c0-1.16-.08-2.3-.21-3.42-1.7,14.64-14.12,26.01-29.22,26.01Z"/>
              <rect class="cls-1" x="70.82" y="48.96" width="10.59" height="1.13" transform="translate(-12.73 68.32) rotate(-45)"/>
              <rect class="cls-1" x="32.95" y="44.23" width="1.13" height="10.59" transform="translate(-25.2 38.2) rotate(-45)"/>
              <circle class="cls-3" cx="54.81" cy="61.34" r="21.19"/>
              <path class="cls-6" d="M65.08,70.26l-4.91.85c-1.3.23-2.55-.65-2.78-1.95-.23-1.3.65-2.55,1.95-2.78l4.91-.86c1.3-.23,2.55.65,2.78,1.95.23,1.3-.65,2.55-1.95,2.78Z"/>
              <path class="cls-6" d="M48.43,60.61h-7.91c-1.15,0-2.09-.94-2.09-2.09s.94-2.09,2.09-2.09h7.91c1.15,0,2.09.94,2.09,2.09s-.94,2.09-2.09,2.09Z"/>
              <path class="cls-6" d="M69.09,60.61h-7.91c-1.15,0-2.09-.94-2.09-2.09s.94-2.09,2.09-2.09h7.91c1.15,0,2.09.94,2.09,2.09s-.94,2.09-2.09,2.09Z"/>
              <g>
                <path class="cls-3" d="M63.8,33.3v.49c-5.48,1.14-11.14,1.14-16.62,0v-.49c0-4.41,3.72-8.2,8.31-8.31,4.59.11,8.32,3.9,8.31,8.31Z"/>
                <path class="cls-5" d="M51.83,32.9c-.96-.07-1.93-.17-2.89-.3-.43-.06-.77-.54-.65-.94.69-2.26,2.45-4.12,4.71-5.01.54-.21,1.08.4.85.98-.56,1.4-1.03,3.01-1.37,4.74-.07.33-.33.56-.65.54Z"/>
                <path class="cls-2" d="M61.01,30.61c.24.94-.37,1.97-1.31,2.2-3.61.85-7.26,1.36-10.85,1.29,4.16.68,8.39.72,12.56.11.14-.02.28-.04.42-.06.66-.1,1.31-.22,1.97-.36v-.49c0-3.25-1.93-5.93-4.73-7.4.87.97,1.54,3.16,1.94,4.71Z"/>
              </g>
              <path class="cls-4" d="M67.99,94.3c-.23-.22-.56-.29-.85-.16-1.44.61-6.07,2.33-12.33,2.34-6.27-.02-10.9-1.74-12.33-2.34-.29-.12-.62-.06-.85.16l-.98.94c-.25.24-.32.61-.17.92.58,1.2,2.01,4.21,2.46,5.79.57,2.01.36,7.79,3.37,4.14,2.68-3.26,7.23-3.24,8.5-3.24.82,0,5.82-.02,8.5,3.24,3.01,3.66,2.8-2.12,3.37-4.14.45-1.59,1.88-4.59,2.46-5.79.15-.31.08-.68-.17-.92l-.98-.94Z"/>
              <path class="cls-2" d="M54.81,77.61c-4.77,0-9.23-.92-13.09-2.52-.55-.23-1.04.47-.61.89,3.5,3.52,8.34,5.71,13.71,5.71s10.2-2.19,13.71-5.71c.42-.43-.06-1.12-.61-.89-3.86,1.6-8.33,2.52-13.09,2.52Z"/>
              <path class="cls-5" d="M54.94,47.03c4.32,0,8.39.7,11.96,1.92,1.45.5,2.65-1.13,1.59-2.16-3.38-3.28-8.19-5.34-13.55-5.34s-10.17,2.06-13.55,5.34c-1.06,1.03.14,2.66,1.59,2.16,3.57-1.23,7.64-1.92,11.96-1.92Z"/>
              <path class="cls-4" d="M71.84,39.63c-2.62-2.08-5.64-3.68-8.92-4.7-.34-.11-.69-.11-1.04-.04-1.73.35-4.18.58-6.94.58s-5.36-.24-7.09-.61c-.35-.08-.71-.07-1.05.03-3.32,1.01-6.37,2.63-9.03,4.73-.84.67,0,1.98.97,1.53,4.76-2.17,10.24-3.41,16.07-3.41s11.3,1.24,16.07,3.41c.98.44,1.81-.87.97-1.53Z"/>
            </g>
          </g>
        </g>
      </g>
    </g>
  </g>
</svg>